<?xml version="1.0" standalone="no"?>
  <!DOCTYPE svg PUBLIC "-//W3C//DTD SVG 1.1//EN" "http://www.w3.org/Graphics/SVG/1.1/DTD/svg11.dtd" >
  <svg>
  <metadata>
  Created by font-carrier
  </metadata>
  <defs>
  <font id="Lato-Heavy" horiz-adv-x="2739" vert-adv-y="2739" >
    <font-face
      
      font-family="Lato Heavy"
      
      font-weight="400"
      
      font-stretch="normal"
      
      units-per-em="2000"
      
      ascent="1974"
      
      descent="-426"
      
    />
      <missing-glyph />

      

      
      <glyph glyph-name="uni41" unicode="&#x41;" d="M918 551L761 995Q747 1030 731.50 1077Q716 1124 702 1179Q688 1123 672.50 1075.50Q657 1028 643 993L487 551L918 551M1422 0L1189 0Q1150 0 1125.50 18.50Q1101 37 1089 66L991 343L413 343L315 66Q305 41 280 20.50Q255 0 217 0L-18 0L549 1451L856 1451L1422 0Z"  horiz-adv-x="1404" vert-adv-y="2000"  />

      
      <glyph glyph-name="uni0104" unicode="&#x0104;" d="M916 551L759 995Q745 1030 729.50 1077Q714 1124 700 1179Q686 1123 670.50 1075.50Q655 1028 641 993L485 551L916 551M1457-295Q1423-317 1372.50-331.50Q1322-346 1265-346Q1162-346 1108.50-304.50Q1055-263 1055-198Q1055-144 1090.50-93Q1126-42 1197 0L1187 0Q1148 0 1123.50 18.50Q1099 37 1087 66L989 343L411 343L313 66Q303 41 278 20.50Q253 0 215 0L-20 0L547 1451L854 1451L1420 0L1360 0Q1340-11 1322-24.50Q1304-38 1290.50-54.50Q1277-71 1268.50-89.50Q1260-108 1260-129Q1260-157 1276.50-173Q1293-189 1323-189Q1340-189 1351-187.50Q1362-186 1368.50-183.50Q1375-181 1380-179.50Q1385-178 1390-178Q1409-178 1416-195L1457-295Z"  horiz-adv-x="1402" vert-adv-y="2000"  />

      
      <glyph glyph-name="unic6" unicode="&#xc6;" d="M920 551L838 1229Q821 1174 802 1127Q783 1080 764 1039L538 551L920 551M1124 1216L1169 843L1657 843L1657 616L1197 616L1243 235L1795 235L1795 0L987 0L945 343L442 343L314 66Q300 37 271 18.50Q242 0 202 0L-26 0L701 1451L1795 1451L1795 1216L1124 1216Z"  horiz-adv-x="1868" vert-adv-y="2000"  />

      
      <glyph glyph-name="uni42" unicode="&#x42;" d="M709 230Q781 230 827.50 247.50Q874 265 902 294Q930 323 941 360.50Q952 398 952 438Q952 482 939 517Q926 552 897 576.50Q868 601 821.50 614Q775 627 707 627L452 627L452 230L709 230M452 1223L452 831L649 831Q712 831 761 841.50Q810 852 843 875Q876 898 893.50 935.50Q911 973 911 1026Q911 1080 896.50 1118Q882 1156 852 1179Q822 1202 776 1212.50Q730 1223 667 1223L452 1223M667 1451Q813 1451 916.50 1423.50Q1020 1396 1085.50 1345.50Q1151 1295 1181 1223Q1211 1151 1211 1062Q1211 1012 1196.50 966Q1182 920 1151.50 879.50Q1121 839 1073 806Q1025 773 959 750Q1107 715 1178 636Q1249 557 1249 431Q1249 339 1213.50 260Q1178 181 1110 123Q1042 65 942.50 32.50Q843 0 714 0L152 0L152 1451L667 1451Z"  horiz-adv-x="1327" vert-adv-y="2000"  />

      
      <glyph glyph-name="uni43" unicode="&#x43;" d="M1140 357Q1165 357 1182 339L1301 212Q1213 100 1082.50 42Q952-16 772-16Q609-16 479 39.50Q349 95 258 194Q167 293 118 429Q69 565 69 726Q69 834 92.50 931.50Q116 1029 161 1111Q206 1193 269.50 1259Q333 1325 413 1371.50Q493 1418 587.50 1442.50Q682 1467 789 1467Q869 1467 940.50 1453Q1012 1439 1074 1414Q1136 1389 1188.50 1353.50Q1241 1318 1283 1276L1182 1138Q1173 1125 1159 1115Q1145 1105 1121 1105Q1097 1105 1072.50 1122Q1048 1139 1012.50 1160Q977 1181 923.50 1198Q870 1215 788 1215Q697 1215 621 1182Q545 1149 490.50 1086.50Q436 1024 406 933Q376 842 376 726Q376 609 408.50 517.50Q441 426 497.50 363Q554 300 629.50 267.50Q705 235 791 235Q842 235 883.50 240Q925 245 960.50 257Q996 269 1027.50 288Q1059 307 1091 336Q1102 345 1114 351Q1126 357 1140 357Z"  horiz-adv-x="1318" vert-adv-y="2000"  />

      
      <glyph glyph-name="unic7" unicode="&#xc7;" d="M1301 212Q1223 112 1111 55Q999-2 847-13L835-56Q882-67 914-82.50Q946-98 965.50-117Q985-136 993.50-159Q1002-182 1002-207Q1002-242 983.50-269.50Q965-297 931.50-316Q898-335 851-345.50Q804-356 747-356Q706-356 670.50-351.50Q635-347 600-337L625-252Q631-228 656-228Q670-228 686-233.50Q702-239 728-239Q758-239 772-228Q786-217 786-202Q786-177 752.50-165.50Q719-154 645-143L690-12Q545 2 430 62.50Q315 123 234.50 220.50Q154 318 111.50 447Q69 576 69 726Q69 834 92.50 931.50Q116 1029 161 1111Q206 1193 269.50 1259Q333 1325 413 1371.50Q493 1418 587.50 1442.50Q682 1467 789 1467Q869 1467 940.50 1453Q1012 1439 1074 1414Q1136 1389 1188.50 1353.50Q1241 1318 1283 1276L1182 1138Q1173 1125 1159 1115Q1145 1105 1121 1105Q1097 1105 1072.50 1122Q1048 1139 1012.50 1160Q977 1181 923.50 1198Q870 1215 788 1215Q697 1215 621 1182Q545 1149 490.50 1086.50Q436 1024 406 933Q376 842 376 726Q376 609 408.50 517.50Q441 426 497.50 363Q554 300 629.50 267.50Q705 235 791 235Q842 235 883.50 240Q925 245 960.50 257Q996 269 1027.50 288Q1059 307 1091 336Q1102 345 1114 351Q1126 357 1140 357Q1165 357 1182 339L1301 212Z"  horiz-adv-x="1318" vert-adv-y="2000"  />

      
      <glyph glyph-name="uni44" unicode="&#x44;" d="M1453 726Q1453 567 1399.50 433.50Q1346 300 1248.50 204Q1151 108 1014 54Q877 0 710 0L152 0L152 1451L710 1451Q877 1451 1014 1397Q1151 1343 1248.50 1246.50Q1346 1150 1399.50 1017Q1453 884 1453 726M1145 726Q1145 840 1115 931Q1085 1022 1029 1085Q973 1148 892.50 1182Q812 1216 710 1216L454 1216L454 235L710 235Q812 235 892.50 268.50Q973 302 1029 365.50Q1085 429 1115 520Q1145 611 1145 726Z"  horiz-adv-x="1522" vert-adv-y="2000"  />

      
      <glyph glyph-name="unid0" unicode="&#xd0;" d="M730 235Q832 235 912.50 268.50Q993 302 1049 365.50Q1105 429 1135 520Q1165 611 1165 726Q1165 840 1135 931Q1105 1022 1049 1085Q993 1148 912.50 1182Q832 1216 730 1216L474 1216L474 813L730 813L730 646L474 646L474 235L730 235M730 1451Q897 1451 1034 1397Q1171 1343 1268.50 1246.50Q1366 1150 1419.50 1017Q1473 884 1473 726Q1473 567 1419.50 433.50Q1366 300 1268.50 204Q1171 108 1034 54Q897 0 730 0L172 0L172 646L-2 646L-2 813L172 813L172 1451L730 1451Z"  horiz-adv-x="1541" vert-adv-y="2000"  />

      
      <glyph glyph-name="uni45" unicode="&#x45;" d="M454 1216L454 843L938 843L938 616L454 616L454 235L1076 235L1076 0L152 0L152 1451L1076 1451L1076 1216L454 1216Z"  horiz-adv-x="1148" vert-adv-y="2000"  />

      
      <glyph glyph-name="uni0118" unicode="&#x0118;" d="M1081-295Q1047-317 996.50-331.50Q946-346 889-346Q786-346 732.50-304.50Q679-263 679-198Q679-144 714.50-93Q750-42 821 0L152 0L152 1451L1076 1451L1076 1216L454 1216L454 843L938 843L938 616L454 616L454 235L1076 235L1076 0L984 0Q964-11 946-24.50Q928-38 914.50-54.50Q901-71 892.50-89.50Q884-108 884-129Q884-157 900.50-173Q917-189 947-189Q964-189 975-187.50Q986-186 992.50-183.50Q999-181 1004-179.50Q1009-178 1014-178Q1033-178 1040-195L1081-295Z"  horiz-adv-x="1148" vert-adv-y="2000"  />

      
      <glyph glyph-name="uni46" unicode="&#x46;" d="M454 1216L454 815L976 815L976 579L454 579L454 0L152 0L152 1451L1076 1451L1076 1216L454 1216Z"  horiz-adv-x="1132" vert-adv-y="2000"  />

      
      <glyph glyph-name="uni47" unicode="&#x47;" d="M858 739L1356 739L1356 140Q1245 59 1119.50 21.50Q994-16 854-16Q675-16 530 39.50Q385 95 282 194Q179 293 123 429Q67 565 67 726Q67 889 120.50 1025Q174 1161 273 1259Q372 1357 512.50 1412Q653 1467 827 1467Q917 1467 995 1452.50Q1073 1438 1139 1412.50Q1205 1387 1260 1352Q1315 1317 1360 1275L1273 1141Q1253 1109 1221 1102Q1189 1095 1151 1118Q1115 1140 1080.50 1157.50Q1046 1175 1007 1188Q968 1201 922 1208Q876 1215 816 1215Q715 1215 633 1180Q551 1145 493.50 1081Q436 1017 405 927Q374 837 374 726Q374 606 408 511.50Q442 417 504 352Q566 287 652.50 253Q739 219 845 219Q917 219 973.50 233.50Q1030 248 1084 273L1084 517L920 517Q891 517 874.50 532.50Q858 548 858 572L858 739Z"  horiz-adv-x="1449" vert-adv-y="2000"  />

      
      <glyph glyph-name="uni48" unicode="&#x48;" d="M1395 1451L1395 0L1093 0L1093 625L454 625L454 0L152 0L152 1451L454 1451L454 835L1093 835L1093 1451L1395 1451Z"  horiz-adv-x="1547" vert-adv-y="2000"  />

      
      <glyph glyph-name="uni0126" unicode="&#x0126;" d="M1104 1035L465 1035L465 835L1104 835L1104 1035M1552 1035L1406 1035L1406 0L1104 0L1104 625L465 625L465 0L163 0L163 1035L17 1035L17 1207L163 1207L163 1451L465 1451L465 1207L1104 1207L1104 1451L1406 1451L1406 1207L1552 1207L1552 1035Z"  horiz-adv-x="1569" vert-adv-y="2000"  />

      
      <glyph glyph-name="uni49" unicode="&#x49;" d="M454 0L152 0L152 1451L454 1451L454 0Z"  horiz-adv-x="606" vert-adv-y="2000"  />

      
      <glyph glyph-name="uni012E" unicode="&#x012E;" d="M506-295Q472-317 421.50-331.50Q371-346 314-346Q211-346 157.50-304.50Q104-263 104-198Q104-144 139.50-93Q175-42 246 0L152 0L152 1451L454 1451L454 0L409 0Q389-11 371-24.50Q353-38 339.50-54.50Q326-71 317.50-89.50Q309-108 309-129Q309-157 325.50-173Q342-189 372-189Q389-189 400-187.50Q411-186 417.50-183.50Q424-181 429-179.50Q434-178 439-178Q458-178 465-195L506-295Z"  horiz-adv-x="606" vert-adv-y="2000"  />

      
      <glyph glyph-name="uni4a" unicode="&#x4a;" d="M726 520Q726 398 696 299.50Q666 201 605.50 130.50Q545 60 454 22Q363-16 242-16Q187-16 133.50-9.50Q80-3 21 11Q25 55 29 99Q33 143 37 187Q40 211 56 225.50Q72 240 102 240Q119 240 145.50 234Q172 228 211 228Q265 228 305 243Q345 258 372 292Q399 326 412.50 380.50Q426 435 426 513L426 1451L726 1451L726 520Z"  horiz-adv-x="864" vert-adv-y="2000"  />

      
      <glyph glyph-name="uni4b" unicode="&#x4b;" d="M452 852L511 852Q585 852 618 898L985 1389Q1011 1424 1042 1437.50Q1073 1451 1118 1451L1378 1451L916 856Q871 798 823 773Q858 759 886 736.50Q914 714 940 677L1414 0L1147 0Q1121 0 1102.50 4Q1084 8 1070 15Q1056 22 1046 32.50Q1036 43 1027 57L654 579Q635 606 609 617.50Q583 629 536 629L452 629L452 0L152 0L152 1451L452 1451L452 852Z"  horiz-adv-x="1390" vert-adv-y="2000"  />

      
      <glyph glyph-name="uni4c" unicode="&#x4c;" d="M1013 244L1013 0L152 0L152 1451L452 1451L452 244L1013 244Z"  horiz-adv-x="1044" vert-adv-y="2000"  />

      
      <glyph glyph-name="uni0141" unicode="&#x0141;" d="M1046 244L1046 0L185 0L185 517L8 429L8 634Q8 670 41 685L185 760L185 1451L485 1451L485 894L833 1067L833 867Q833 824 796 810L485 649L485 244L1046 244Z"  horiz-adv-x="1077" vert-adv-y="2000"  />

      
      <glyph glyph-name="uni013D" unicode="&#x013D;" d="M1013 244L1013 0L152 0L152 1451L452 1451L452 244L1013 244M837 1493Q867 1493 874 1479.50Q881 1466 881 1454Q881 1445 877.50 1430Q874 1415 863 1385.50Q852 1356 832.50 1308.50Q813 1261 780 1188Q765 1158 742.50 1149Q720 1140 685 1140L587 1140L651 1493L837 1493Z"  horiz-adv-x="1044" vert-adv-y="2000"  />

      
      <glyph glyph-name="uni4d" unicode="&#x4d;" d="M1752 1451L1752 0L1487 0L1487 891Q1487 919 1488.50 951Q1490 983 1494 1016L1079 229Q1045 164 974 164L932 164Q897 164 870 180.50Q843 197 827 229L410 1019Q413 984 415 951.50Q417 919 417 891L417 0L152 0L152 1451L380 1451Q399 1451 414 1450Q429 1449 440.50 1444.50Q452 1440 461.50 1430.50Q471 1421 480 1404L886 630Q905 595 921.50 558Q938 521 953 482Q968 522 984.50 560Q1001 598 1020 633L1423 1404Q1432 1421 1442 1430.50Q1452 1440 1463.50 1444.50Q1475 1449 1489.50 1450Q1504 1451 1524 1451L1752 1451Z"  horiz-adv-x="1903" vert-adv-y="2000"  />

      
      <glyph glyph-name="uni4e" unicode="&#x4e;" d="M1395 1451L1395 0L1240 0Q1205 0 1181 11.50Q1157 23 1134 51L411 971Q414 936 415.50 902Q417 868 417 839L417 0L152 0L152 1451L310 1451Q329 1451 342.50 1449.50Q356 1448 367 1442.50Q378 1437 388 1428Q398 1419 410 1404L1138 480Q1134 518 1132 553.50Q1130 589 1130 621L1130 1451L1395 1451Z"  horiz-adv-x="1547" vert-adv-y="2000"  />

      
      <glyph glyph-name="uni014A" unicode="&#x014A;" d="M1395 1451L1395 51Q1395-38 1374.50-112.50Q1354-187 1308-241.50Q1262-296 1189.50-326.50Q1117-357 1014-357Q986-357 962-354.50Q938-352 915-347Q892-342 868.50-334Q845-326 820-315L850-197Q859-165 875-155.50Q891-146 911-146Q927-146 942.50-151Q958-156 989-156Q1060-156 1095-113.50Q1130-71 1130 20L1130 56L411 971Q414 936 415.50 902Q417 868 417 839L417 0L152 0L152 1451L310 1451Q329 1451 342.50 1449.50Q356 1448 367 1442.50Q378 1437 388 1428Q398 1419 410 1404L1138 480Q1134 518 1132 553.50Q1130 589 1130 621L1130 1451L1395 1451Z"  horiz-adv-x="1547" vert-adv-y="2000"  />

      
      <glyph glyph-name="uni4f" unicode="&#x4f;" d="M1554 726Q1554 567 1500.50 431Q1447 295 1349.50 196Q1252 97 1115 40.50Q978-16 811-16Q644-16 507 40.50Q370 97 272 196Q174 295 120.50 431Q67 567 67 726Q67 885 120.50 1020.50Q174 1156 272 1255Q370 1354 507 1410.50Q644 1467 811 1467Q978 1467 1115 1410.50Q1252 1354 1349.50 1254.50Q1447 1155 1500.50 1019.50Q1554 884 1554 726M1247 726Q1247 840 1217 930.50Q1187 1021 1130.50 1084.50Q1074 1148 993.50 1181.50Q913 1215 811 1215Q709 1215 628 1181.50Q547 1148 490.50 1084.50Q434 1021 404 930.50Q374 840 374 726Q374 611 404 520.50Q434 430 490.50 367Q547 304 628 270.50Q709 237 811 237Q913 237 993.50 270.50Q1074 304 1130.50 367Q1187 430 1217 520.50Q1247 611 1247 726Z"  horiz-adv-x="1622" vert-adv-y="2000"  />

      
      <glyph glyph-name="unid8" unicode="&#xd8;" d="M619 274Q705 237 811 237Q913 237 993.50 270.50Q1074 304 1130.50 367Q1187 430 1217 520.50Q1247 611 1247 726Q1247 912 1169 1034L619 274M1035 1161Q988 1187 932 1201Q876 1215 811 1215Q709 1215 628 1181.50Q547 1148 490.50 1084.50Q434 1021 404 930.50Q374 840 374 726Q374 619 399.50 534Q425 449 474 386L1035 1161M1337 1267Q1441 1167 1497.50 1028.50Q1554 890 1554 726Q1554 567 1500.50 431Q1447 295 1349.50 196Q1252 97 1115 40.50Q978-16 811-16Q714-16 627 3.50Q540 23 464 59L396-34Q364-77 319.50-94.50Q275-112 231-112L114-112L311 160Q195 261 131 406Q67 551 67 726Q67 885 120.50 1020.50Q174 1156 272 1255Q370 1354 507 1410.50Q644 1467 811 1467Q919 1467 1014 1443.50Q1109 1420 1190 1375L1241 1445Q1256 1465 1268 1478.50Q1280 1492 1293.50 1500.50Q1307 1509 1324 1513Q1341 1517 1365 1517L1518 1517L1337 1267Z"  horiz-adv-x="1622" vert-adv-y="2000"  />

      
      <glyph glyph-name="uni0152" unicode="&#x0152;" d="M770 228Q861 228 933.50 263Q1006 298 1056 362.50Q1106 427 1132.50 519Q1159 611 1159 726Q1159 840 1132.50 932Q1106 1024 1056 1088.50Q1006 1153 933.50 1188Q861 1223 770 1223Q677 1223 604 1188Q531 1153 480.50 1088.50Q430 1024 403.50 932Q377 840 377 726Q377 611 403.50 519Q430 427 480.50 362.50Q531 298 604 263Q677 228 770 228M1461 1216L1461 843L1945 843L1945 616L1461 616L1461 235L2083 235L2083 0L1195 0L1195 168Q1108 81 993.50 33Q879-15 739-15Q589-15 465.50 41Q342 97 254 196.50Q166 296 117.50 431.50Q69 567 69 726Q69 885 117.50 1020.50Q166 1156 254 1255Q342 1354 465.50 1410.50Q589 1467 739 1467Q879 1467 993.50 1419Q1108 1371 1195 1283L1195 1451L2083 1451L2083 1216L1461 1216Z"  horiz-adv-x="2156" vert-adv-y="2000"  />

      
      <glyph glyph-name="uni50" unicode="&#x50;" d="M642 729Q783 729 848.50 797Q914 865 914 983Q914 1037 897.50 1081.50Q881 1126 847.50 1157.50Q814 1189 763 1206Q712 1223 642 1223L452 1223L452 729L642 729M642 1451Q791 1451 899.50 1416Q1008 1381 1078 1318.50Q1148 1256 1181.50 1170Q1215 1084 1215 983Q1215 876 1180 787Q1145 698 1074 634Q1003 570 895 534.50Q787 499 642 499L452 499L452 0L152 0L152 1451L642 1451Z"  horiz-adv-x="1254" vert-adv-y="2000"  />

      
      <glyph glyph-name="unide" unicode="&#xde;" d="M642 487Q783 487 848.50 554.50Q914 622 914 741Q914 795 897.50 839.50Q881 884 847.50 915.50Q814 947 763 964Q712 981 642 981L452 981L452 487L642 487M642 1209Q791 1209 899.50 1174Q1008 1139 1078 1076.50Q1148 1014 1181.50 928Q1215 842 1215 741Q1215 634 1180 545Q1145 456 1074 392Q1003 328 895 292.50Q787 257 642 257L452 257L452 0L152 0L152 1451L452 1451L452 1209L642 1209Z"  horiz-adv-x="1246" vert-adv-y="2000"  />

      
      <glyph glyph-name="uni51" unicode="&#x51;" d="M375 726Q375 611 405 520.50Q435 430 491.50 367Q548 304 629 270.50Q710 237 812 237Q914 237 994.50 270.50Q1075 304 1131.50 367Q1188 430 1218 520.50Q1248 611 1248 726Q1248 840 1218 930.50Q1188 1021 1131.50 1084.50Q1075 1148 994.50 1181.50Q914 1215 812 1215Q710 1215 629 1181.50Q548 1148 491.50 1084.50Q435 1021 405 930.50Q375 840 375 726M1633-278L1386-278Q1332-278 1289.50-264Q1247-250 1211-212L1014 7Q917-16 812-16Q645-16 508 40.50Q371 97 273 196Q175 295 121.50 431Q68 567 68 726Q68 885 121.50 1020.50Q175 1156 273 1255Q371 1354 508 1410.50Q645 1467 812 1467Q979 1467 1116 1410.50Q1253 1354 1350.50 1254.50Q1448 1155 1501.50 1019.50Q1555 884 1555 726Q1555 630 1535.50 542.50Q1516 455 1479 378.50Q1442 302 1388 237Q1334 172 1266 123L1633-278Z"  horiz-adv-x="1623" vert-adv-y="2000"  />

      
      <glyph glyph-name="uni52" unicode="&#x52;" d="M606 764Q679 764 732 782.50Q785 801 819 833.50Q853 866 869 910Q885 954 885 1006Q885 1109 816.50 1166Q748 1223 608 1223L452 1223L452 764L606 764M1309 0L1038 0Q962 0 928 58L652 503Q635 529 614.50 541Q594 553 554 553L452 553L452 0L152 0L152 1451L608 1451Q760 1451 868 1419.50Q976 1388 1045 1332Q1114 1276 1146 1198.50Q1178 1121 1178 1028Q1178 956 1157.50 891.50Q1137 827 1098 774Q1059 721 1002 680Q945 639 872 614Q901 598 926 575.50Q951 553 971 522L1309 0Z"  horiz-adv-x="1299" vert-adv-y="2000"  />

      
      <glyph glyph-name="uni53" unicode="&#x53;" d="M938 1173Q924 1150 909.50 1139.50Q895 1129 872 1129Q850 1129 824.50 1144.50Q799 1160 765 1178Q731 1196 687 1211.50Q643 1227 584 1227Q480 1227 428 1180.50Q376 1134 376 1059Q376 1011 404.50 979.50Q433 948 479.50 925Q526 902 585 884Q644 866 706 844.50Q768 823 827 794Q886 765 932.50 721Q979 677 1007.50 613.50Q1036 550 1036 459Q1036 360 1001.50 273.50Q967 187 902 122.50Q837 58 741.50 21Q646-16 525-16Q456-16 387.50-2Q319 12 255.50 37Q192 62 136 97Q80 132 38 175L126 317Q137 333 155 343.50Q173 354 193 354Q220 354 250 334Q280 314 319 290Q358 266 409.50 246Q461 226 533 226Q638 226 695.50 274Q753 322 753 417Q753 472 724.50 506Q696 540 650 563Q604 586 545 602.50Q486 619 424 639Q362 659 303 687Q244 715 198 761Q152 807 123.50 875Q95 943 95 1044Q95 1125 127 1201Q159 1277 221 1336Q283 1395 373.50 1431Q464 1467 581 1467Q712 1467 823.50 1426.50Q935 1386 1012 1314L938 1173Z"  horiz-adv-x="1102" vert-adv-y="2000"  />

      
      <glyph glyph-name="uni015E" unicode="&#x015E;" d="M938 1173Q924 1150 909.50 1139.50Q895 1129 872 1129Q850 1129 824.50 1144.50Q799 1160 765 1178Q731 1196 687 1211.50Q643 1227 584 1227Q480 1227 428 1180.50Q376 1134 376 1059Q376 1011 404.50 979.50Q433 948 479.50 925Q526 902 585 884Q644 866 706 844.50Q768 823 827 794Q886 765 932.50 721Q979 677 1007.50 613.50Q1036 550 1036 459Q1036 372 1009 294Q982 216 930.50 154Q879 92 804 50Q729 8 633-7L620-56Q667-67 699-82.50Q731-98 750.50-117Q770-136 778.50-159Q787-182 787-207Q787-242 768.50-269.50Q750-297 716.50-316Q683-335 636-345.50Q589-356 532-356Q491-356 455.50-351.50Q420-347 385-337L410-252Q416-228 441-228Q455-228 471-233.50Q487-239 513-239Q543-239 557-228Q571-217 571-202Q571-177 537.50-165.50Q504-154 430-143L474-14Q411-9 349.50 6.50Q288 22 231.50 46.50Q175 71 125.50 103.50Q76 136 38 175L126 317Q137 333 155 343.50Q173 354 193 354Q220 354 250 334Q280 314 319 290Q358 266 409.50 246Q461 226 533 226Q638 226 695.50 274Q753 322 753 417Q753 472 724.50 506Q696 540 650 563Q604 586 545 602.50Q486 619 424 639Q362 659 303 687Q244 715 198 761Q152 807 123.50 875Q95 943 95 1044Q95 1125 127 1201Q159 1277 221 1336Q283 1395 373.50 1431Q464 1467 581 1467Q712 1467 823.50 1426.50Q935 1386 1012 1314L938 1173Z"  horiz-adv-x="1102" vert-adv-y="2000"  />

      
      <glyph glyph-name="uni54" unicode="&#x54;" d="M1179 1209L755 1209L755 0L454 0L454 1209L30 1209L30 1451L1179 1451L1179 1209Z"  horiz-adv-x="1208" vert-adv-y="2000"  />

      
      <glyph glyph-name="uni0166" unicode="&#x0166;" d="M766 1209L766 853L1073 853L1073 686L766 686L766 0L465 0L465 686L158 686L158 853L465 853L465 1209L41 1209L41 1451L1190 1451L1190 1209L766 1209Z"  horiz-adv-x="1231" vert-adv-y="2000"  />

      
      <glyph glyph-name="uni55" unicode="&#x55;" d="M746 240Q819 240 877 264.50Q935 289 975 334Q1015 379 1036 443Q1057 507 1057 587L1057 1451L1357 1451L1357 587Q1357 455 1314.50 344.50Q1272 234 1193 154Q1114 74 1001 29Q888-16 746-16Q604-16 490.50 29Q377 74 298 154Q219 234 176.50 344.50Q134 455 134 587L134 1451L434 1451L434 587Q434 507 455 443Q476 379 516 334Q556 289 614 264.50Q672 240 746 240Z"  horiz-adv-x="1491" vert-adv-y="2000"  />

      
      <glyph glyph-name="uni0172" unicode="&#x0172;" d="M1357 1451L1357 587Q1357 470 1323.50 370Q1290 270 1227 192.50Q1164 115 1073.50 63.50Q983 12 869-6Q833-28 806-59.50Q779-91 779-130Q779-158 795.50-174Q812-190 842-190Q859-190 870-188.50Q881-187 887.50-184.50Q894-182 899-180.50Q904-179 909-179Q928-179 935-196L976-296Q942-318 891.50-332.50Q841-347 784-347Q681-347 627.50-305.50Q574-264 574-199Q574-150 604.50-102.50Q635-55 695-14Q564-6 460 41.50Q356 89 283.50 168.50Q211 248 172.50 354.50Q134 461 134 587L134 1451L434 1451L434 587Q434 507 455 443Q476 379 516 334Q556 289 614 264.50Q672 240 746 240Q819 240 877 264.50Q935 289 975 334Q1015 379 1036 443Q1057 507 1057 587L1057 1451L1357 1451Z"  horiz-adv-x="1491" vert-adv-y="2000"  />

      
      <glyph glyph-name="uni56" unicode="&#x56;" d="M1422 1451L838 0L566 0L-18 1451L224 1451Q263 1451 287.50 1432.50Q312 1414 324 1385L638 549Q656 502 673.50 446.50Q691 391 706 330Q719 391 734.50 446.50Q750 502 768 549L1080 1385Q1090 1410 1115.50 1430.50Q1141 1451 1179 1451L1422 1451Z"  horiz-adv-x="1404" vert-adv-y="2000"  />

      
      <glyph glyph-name="uni57" unicode="&#x57;" d="M2104 1451L1654 0L1383 0L1086 949Q1079 969 1072 993Q1065 1017 1059 1044Q1053 1017 1046 993Q1039 969 1032 949L732 0L460 0L11 1451L263 1451Q302 1451 328.50 1433Q355 1415 363 1385L588 567Q596 533 604.50 493.50Q613 454 621 410Q630 455 640 494Q650 533 662 567L924 1385Q932 1410 958.50 1430.50Q985 1451 1023 1451L1111 1451Q1150 1451 1174.50 1432.50Q1199 1414 1211 1385L1472 567Q1484 535 1494 497.50Q1504 460 1513 418Q1521 460 1528.50 497.50Q1536 535 1544 567L1769 1385Q1776 1411 1803 1431Q1830 1451 1868 1451L2104 1451Z"  horiz-adv-x="2115" vert-adv-y="2000"  />

      
      <glyph glyph-name="uni58" unicode="&#x58;" d="M1361 0L1061 0Q1031 0 1012.50 15Q994 30 983 50L669 584Q664 573 659.50 562.50Q655 552 649 543L351 50Q338 31 320.50 15.50Q303 0 276 0L-4 0L471 747L14 1451L314 1451Q344 1451 358 1443Q372 1435 383 1417L695 904Q700 916 706 928.50Q712 941 720 954L1000 1412Q1012 1432 1026.50 1441.50Q1041 1451 1062 1451L1349 1451L888 760L1361 0Z"  horiz-adv-x="1359" vert-adv-y="2000"  />

      
      <glyph glyph-name="uni59" unicode="&#x59;" d="M808 558L808 0L508 0L508 558L-19 1451L245 1451Q284 1451 307.50 1432.50Q331 1414 345 1385L583 928Q607 882 626.50 842Q646 802 661 762Q675 802 693.50 842.50Q712 883 735 928L971 1385Q983 1409 1007 1430Q1031 1451 1069 1451L1335 1451L808 558Z"  horiz-adv-x="1316" vert-adv-y="2000"  />

      
      <glyph glyph-name="uni5a" unicode="&#x5a;" d="M1165 1341Q1165 1318 1157.50 1294.50Q1150 1271 1136 1251L420 235L1145 235L1145 0L35 0L35 117Q35 138 42 158.50Q49 179 62 196L780 1216L86 1216L86 1451L1165 1451L1165 1341Z"  horiz-adv-x="1214" vert-adv-y="2000"  />

      
      <glyph glyph-name="uni61" unicode="&#x61;" d="M653 431Q552 426 485 413.50Q418 401 378.50 381Q339 361 322.50 335.50Q306 310 306 280Q306 220 339.50 195Q373 170 433 170Q502 170 552.50 194.50Q603 219 653 271L653 431M91 888Q182 970 292 1010.50Q402 1051 530 1051Q622 1051 694.50 1021Q767 991 817.50 937.50Q868 884 895 810Q922 736 922 648L922 0L796 0Q757 0 736.50 11Q716 22 703 57L681 123Q642 89 605.50 63Q569 37 530 19.50Q491 2 446.50-7Q402-16 347-16Q279-16 223 2Q167 20 126.50 55.50Q86 91 64 144Q42 197 42 266Q42 323 71 380Q100 437 170.50 483.50Q241 530 358.50 560.50Q476 591 653 595L653 648Q653 745 612 790.50Q571 836 494 836Q437 836 399 822.50Q361 809 332.50 793.50Q304 778 279 764.50Q254 751 221 751Q192 751 172.50 765.50Q153 780 140 800L91 888Z"  horiz-adv-x="1024" vert-adv-y="2000"  />

      
      <glyph glyph-name="uni0105" unicode="&#x0105;" d="M653 431Q552 426 485 413.50Q418 401 378.50 381Q339 361 322.50 335.50Q306 310 306 280Q306 220 339.50 195Q373 170 433 170Q502 170 552.50 194.50Q603 219 653 271L653 431M1019-295Q985-317 934.50-331.50Q884-346 827-346Q724-346 670.50-304.50Q617-263 617-198Q617-144 653.50-92Q690-40 763 2Q740 6 727 18.50Q714 31 703 57L681 123Q642 89 605.50 63Q569 37 530 19.50Q491 2 446.50-7Q402-16 347-16Q279-16 223 2Q167 20 126.50 55.50Q86 91 64 144Q42 197 42 266Q42 323 71 380Q100 437 170.50 483.50Q241 530 358.50 560.50Q476 591 653 595L653 648Q653 745 612 790.50Q571 836 494 836Q437 836 399 822.50Q361 809 332.50 793.50Q304 778 279 764.50Q254 751 221 751Q192 751 172.50 765.50Q153 780 140 800L91 888Q182 970 292 1010.50Q402 1051 530 1051Q622 1051 694.50 1021Q767 991 817.50 937.50Q868 884 895 810Q922 736 922 648L922 0Q902-11 884-24.50Q866-38 852.50-54.50Q839-71 830.50-89.50Q822-108 822-129Q822-157 838.50-173Q855-189 885-189Q902-189 913-187.50Q924-186 930.50-183.50Q937-181 942-179.50Q947-178 952-178Q971-178 978-195L1019-295Z"  horiz-adv-x="1024" vert-adv-y="2000"  />

      
      <glyph glyph-name="unie6" unicode="&#xe6;" d="M655 454Q554 449 487 434Q420 419 380.50 397.50Q341 376 324.50 348.50Q308 321 308 291Q308 229 342 199.50Q376 170 439 170Q485 170 524.50 184Q564 198 593 228Q622 258 638.50 305.50Q655 353 655 421L655 454M1319 617Q1319 661 1308.50 703.50Q1298 746 1275.50 779Q1253 812 1217.50 832.50Q1182 853 1133 853Q1036 853 983.50 791.50Q931 730 917 617L1319 617M918 453Q933 319 998.50 256.50Q1064 194 1165 194Q1232 194 1273.50 206.50Q1315 219 1342 234Q1369 249 1387.50 261.50Q1406 274 1429 274Q1467 274 1485 250L1559 157Q1515 106 1463 72.50Q1411 39 1356 19.50Q1301 0 1245.50-7.50Q1190-15 1138-15Q1085-15 1034.50-3.50Q984 8 938 31.50Q892 55 851.50 91.50Q811 128 780 178Q749 127 705 90.50Q661 54 607.50 30Q554 6 494.50-5Q435-16 372-16Q295-16 234.50 3.50Q174 23 131.50 60.50Q89 98 66.50 152.50Q44 207 44 277Q44 334 73 393Q102 452 172.50 500.50Q243 549 360.50 581.50Q478 614 655 618L655 648Q655 745 614 794.50Q573 844 496 844Q439 844 401 829.50Q363 815 334.50 797.50Q306 780 281 765.50Q256 751 223 751Q194 751 174.50 765.50Q155 780 142 800L93 888Q184 970 283 1010.50Q382 1051 502 1051Q617 1051 691 1009.50Q765 968 806 895Q863 966 948 1006.50Q1033 1047 1145 1047Q1235 1047 1311.50 1013Q1388 979 1444 915Q1500 851 1532 760.50Q1564 670 1564 557Q1564 526 1561.50 506Q1559 486 1552 474Q1545 462 1533.50 457.50Q1522 453 1503 453L918 453Z"  horiz-adv-x="1623" vert-adv-y="2000"  />

      
      <glyph glyph-name="uni62" unicode="&#x62;" d="M390 272Q429 227 474.50 209Q520 191 569 191Q620 191 661.50 209.50Q703 228 733 268.50Q763 309 779 374Q795 439 795 531Q795 613 782 670.50Q769 728 743.50 765Q718 802 681 819Q644 836 595 836Q530 836 482.50 807.50Q435 779 390 724L390 272M390 912Q451 973 525 1010Q599 1047 691 1047Q780 1047 851.50 1011.50Q923 976 973.50 910Q1024 844 1051.50 750.50Q1079 657 1079 541Q1079 416 1047.50 313.50Q1016 211 958 138Q900 65 819.50 25Q739-15 640-15Q592-15 554-5.50Q516 4 484 21Q452 38 425 61.50Q398 85 374 114L363 52Q356 23 340 11.50Q324 0 297 0L114 0L114 1491L390 1491L390 912Z"  horiz-adv-x="1142" vert-adv-y="2000"  />

      
      <glyph glyph-name="uni63" unicode="&#x63;" d="M862 801Q850 785 838 776.50Q826 768 804 768Q784 768 765.50 779.50Q747 791 723 804.50Q699 818 666 829.50Q633 841 584 841Q522 841 476.50 818.50Q431 796 401 754Q371 712 356.50 652Q342 592 342 517Q342 359 405.50 275Q469 191 579 191Q617 191 644.50 197.50Q672 204 692.50 214Q713 224 728 236Q743 248 756.50 258Q770 268 783.50 274.50Q797 281 814 281Q846 281 864 257L943 157Q899 106 849 72.50Q799 39 745.50 19.50Q692 0 637-7.50Q582-15 528-15Q433-15 348 20.50Q263 56 199 124Q135 192 97.50 291Q60 390 60 517Q60 630 93 727Q126 824 190 895Q254 966 348.50 1006.50Q443 1047 567 1047Q685 1047 774 1009Q863 971 934 899L862 801Z"  horiz-adv-x="968" vert-adv-y="2000"  />

      
      <glyph glyph-name="unie7" unicode="&#xe7;" d="M943 157Q907 115 867 85.50Q827 56 784.50 36Q742 16 697.50 5Q653-6 609-11L596-56Q644-67 676-82.50Q708-98 727.50-117Q747-136 755.50-159Q764-182 764-207Q764-242 745.50-269.50Q727-297 693.50-316Q660-335 613-345.50Q566-356 509-356Q468-356 432.50-351.50Q397-347 361-337L387-252Q393-228 418-228Q432-228 448-233.50Q464-239 490-239Q520-239 534-228Q548-217 548-202Q548-177 514.50-165.50Q481-154 407-143L453-9Q370 4 298.50 45Q227 86 174 153Q121 220 90.50 311.50Q60 403 60 517Q60 630 93 727Q126 824 190 895Q254 966 348.50 1006.50Q443 1047 567 1047Q685 1047 774 1009Q863 971 934 899L862 801Q850 785 838 776.50Q826 768 804 768Q784 768 765.50 779.50Q747 791 723 804.50Q699 818 666 829.50Q633 841 584 841Q522 841 476.50 818.50Q431 796 401 754Q371 712 356.50 652Q342 592 342 517Q342 359 405.50 275Q469 191 579 191Q617 191 644.50 197.50Q672 204 692.50 214Q713 224 728 236Q743 248 756.50 258Q770 268 783.50 274.50Q797 281 814 281Q846 281 864 257L943 157Z"  horiz-adv-x="970" vert-adv-y="2000"  />

      
      <glyph glyph-name="uni64" unicode="&#x64;" d="M751 763Q712 808 666.50 826Q621 844 570 844Q520 844 479 825Q438 806 408.50 765.50Q379 725 363 662Q347 599 347 512Q347 426 360 366Q373 306 397.50 269Q422 232 457 215.50Q492 199 535 199Q608 199 657.50 228Q707 257 751 310L751 763M1027 1491L1027 0L857 0Q804 0 789 48L766 138Q735 104 700.50 76Q666 48 626 27.50Q586 7 540-4Q494-15 440-15Q357-15 288 20Q219 55 168.50 122.50Q118 190 90 288Q62 386 62 512Q62 627 93.50 726Q125 825 183 897Q241 969 323 1010Q405 1051 505 1051Q589 1051 646.50 1026Q704 1001 751 958L751 1491L1027 1491Z"  horiz-adv-x="1142" vert-adv-y="2000"  />

      
      <glyph glyph-name="uni010F" unicode="&#x010F;" d="M751 763Q712 808 666.50 826Q621 844 570 844Q520 844 479 825Q438 806 408.50 765.50Q379 725 363 662Q347 599 347 512Q347 426 360 366Q373 306 397.50 269Q422 232 457 215.50Q492 199 535 199Q608 199 657.50 228Q707 257 751 310L751 763M1027 1491L1027 0L857 0Q804 0 789 48L766 138Q735 104 700.50 76Q666 48 626 27.50Q586 7 540-4Q494-15 440-15Q357-15 288 20Q219 55 168.50 122.50Q118 190 90 288Q62 386 62 512Q62 627 93.50 726Q125 825 183 897Q241 969 323 1010Q405 1051 505 1051Q589 1051 646.50 1026Q704 1001 751 958L751 1491L1027 1491M1343 1493Q1373 1493 1380 1479.50Q1387 1466 1387 1454Q1387 1445 1383.50 1430Q1380 1415 1369 1385.50Q1358 1356 1338.50 1308.50Q1319 1261 1286 1188Q1271 1158 1248.50 1149Q1226 1140 1191 1140L1093 1140L1157 1493L1343 1493Z"  horiz-adv-x="1141" vert-adv-y="2000"  />

      
      <glyph glyph-name="uni0111" unicode="&#x0111;" d="M753 729Q714 774 668.50 792Q623 810 571 810Q521 810 480 793.50Q439 777 410 740Q381 703 365 642.50Q349 582 349 495Q349 409 362 352Q375 295 399.50 261Q424 227 459 213Q494 199 537 199Q610 199 659.50 228Q709 257 753 311L753 729M1171 1127L1029 1127L1029 0L859 0Q806 0 791 48L768 139Q737 104 702.50 76Q668 48 628 27.50Q588 7 542-4Q496-15 442-15Q359-15 289.50 17.50Q220 50 170 114.50Q120 179 92 274Q64 369 64 495Q64 610 95.50 706Q127 802 185 871Q243 940 324.50 978Q406 1016 506 1016Q590 1016 648 991Q706 966 753 923L753 1127L530 1127L530 1294L753 1294L753 1491L1029 1491L1029 1294L1171 1294L1171 1127Z"  horiz-adv-x="1142" vert-adv-y="2000"  />

      
      <glyph glyph-name="unif0" unicode="&#xf0;" d="M560 191Q612 191 657 210Q702 229 736.50 272.50Q771 316 792 387Q813 458 816 562Q801 596 779 626.50Q757 657 727.50 679Q698 701 660 714Q622 727 574 727Q514 727 468.50 707.50Q423 688 392.50 653.50Q362 619 346 573Q330 527 330 475Q330 406 348 353Q366 300 397 264Q428 228 470 209.50Q512 191 560 191M834 1209Q946 1107 1011 958.50Q1076 810 1076 609Q1076 461 1041.50 345Q1007 229 940.50 149Q874 69 776.50 27Q679-15 553-15Q447-15 356 18.50Q265 52 198.50 115Q132 178 94 269.50Q56 361 56 477Q56 568 89 650.50Q122 733 182.50 796Q243 859 328 896Q413 933 517 933Q610 933 685 902Q760 871 819 812Q798 906 752 976Q706 1046 625 1100L420 974L368 1060Q351 1086 358.50 1110Q366 1134 393 1148L456 1183Q430 1192 401 1201.50Q372 1211 340 1219Q322 1224 307.50 1234Q293 1244 285 1260Q277 1276 276.50 1297Q276 1318 286 1345L318 1439Q421 1422 516 1390.50Q611 1359 695 1310L874 1420L929 1333Q944 1309 937.50 1286Q931 1263 908 1249L834 1209Z"  horiz-adv-x="1145" vert-adv-y="2000"  />

      
      <glyph glyph-name="uni65" unicode="&#x65;" d="M768 637Q768 680 756.50 719Q745 758 720 788Q695 818 657 835.50Q619 853 566 853Q467 853 411 797Q355 741 338 637L768 637M334 473Q347 328 416.50 261Q486 194 598 194Q655 194 696.50 207.50Q738 221 769.50 237.50Q801 254 826.50 267.50Q852 281 877 281Q909 281 927 257L1007 157Q963 106 910 72.50Q857 39 800 19.50Q743 0 685-7.50Q627-15 573-15Q465-15 371.50 20.50Q278 56 208.50 125.50Q139 195 99 298Q59 401 59 537Q59 642 93.50 735Q128 828 193 897Q258 966 351 1006.50Q444 1047 561 1047Q660 1047 743.50 1015.50Q827 984 887.50 924Q948 864 981.50 776.50Q1015 689 1015 577Q1015 546 1012 526Q1009 506 1002 494Q995 482 983 477.50Q971 473 952 473L334 473Z"  horiz-adv-x="1072" vert-adv-y="2000"  />

      
      <glyph glyph-name="uni0119" unicode="&#x0119;" d="M768 637Q768 680 756.50 719Q745 758 720 788Q695 818 657 835.50Q619 853 566 853Q467 853 411 797Q355 741 338 637L768 637M334 473Q347 328 416.50 261Q486 194 598 194Q655 194 696.50 207.50Q738 221 769.50 237.50Q801 254 826.50 267.50Q852 281 877 281Q909 281 927 257L1007 157Q943 83 862.50 46Q782 9 699-5Q663-26 635.50-58Q608-90 608-129Q608-157 624.50-173Q641-189 671-189Q688-189 699-187.50Q710-186 716.50-183.50Q723-181 728-179.50Q733-178 738-178Q757-178 764-195L805-295Q771-317 720.50-331.50Q670-346 613-346Q510-346 456.50-304.50Q403-263 403-198Q403-149 433.50-101.50Q464-54 524-13Q425-6 340 33Q255 72 192.50 141.50Q130 211 94.50 310Q59 409 59 537Q59 642 93.50 735Q128 828 193 897Q258 966 351 1006.50Q444 1047 561 1047Q660 1047 743.50 1015.50Q827 984 887.50 924Q948 864 981.50 776.50Q1015 689 1015 577Q1015 546 1012 526Q1009 506 1002 494Q995 482 983 477.50Q971 473 952 473L334 473Z"  horiz-adv-x="1072" vert-adv-y="2000"  />

      
      <glyph glyph-name="uni66" unicode="&#x66;" d="M189 0L189 833L109 847Q78 853 58.50 869Q39 885 39 915L39 1025L189 1025L189 1093Q189 1181 216.50 1252.50Q244 1324 295 1373.50Q346 1423 420 1450Q494 1477 587 1477Q623 1477 655.50 1472.50Q688 1468 721 1459L715 1323Q713 1292 688.50 1282.50Q664 1273 634 1273Q592 1273 558.50 1264Q525 1255 502 1233.50Q479 1212 467 1175.50Q455 1139 455 1085L455 1025L711 1025L711 833L464 833L464 0L189 0Z"  horiz-adv-x="724" vert-adv-y="2000"  />

      
      <glyph glyph-name="uniFB00" unicode="&#xFB00;" d="M189 0L189 833L109 847Q78 853 58.50 869Q39 885 39 915L39 1025L189 1025L189 1075Q189 1163 216.50 1234.50Q244 1306 295 1355.50Q346 1405 420 1432Q494 1459 587 1459Q623 1459 655.50 1454Q688 1449 721 1440L715 1304Q713 1274 688.50 1264Q664 1254 634 1254Q592 1254 558.50 1245Q525 1236 502 1214.50Q479 1193 467 1156.50Q455 1120 455 1066L455 1025L844 1025L844 1110Q844 1198 871.50 1269.50Q899 1341 950 1390.50Q1001 1440 1075 1467Q1149 1494 1242 1494Q1278 1494 1310.50 1489.50Q1343 1485 1376 1476L1370 1340Q1368 1309 1343.50 1299.50Q1319 1290 1289 1290Q1247 1290 1213.50 1281Q1180 1272 1157.50 1250.50Q1135 1229 1123 1192.50Q1111 1156 1111 1102L1111 1025L1366 1025L1366 833L1119 833L1119 0L844 0L844 833L464 833L464 0L189 0Z"  horiz-adv-x="1379" vert-adv-y="2000"  />

      
      <glyph glyph-name="uniFB01" unicode="&#xFB01;" d="M189 0L189 833L109 847Q78 853 58.50 869Q39 885 39 915L39 1025L189 1025L189 1050Q189 1144 220.50 1225.50Q252 1307 317.50 1367.50Q383 1428 483.50 1462.50Q584 1497 722 1497Q765 1497 811 1492.50Q857 1488 890 1479L881 1338Q880 1326 873.50 1319Q867 1312 856 1308Q845 1304 831.50 1303Q818 1302 803 1302Q703 1302 636 1285.50Q569 1269 529 1236Q489 1203 472.50 1154Q456 1105 456 1041L456 1025L1102 1025L1102 0L826 0L826 833L465 833L465 0L189 0Z"  horiz-adv-x="1225" vert-adv-y="2000"  />

      
      <glyph glyph-name="uniFB03" unicode="&#xFB03;" d="M189 0L189 833L109 847Q78 853 58.50 869Q39 885 39 915L39 1025L189 1025L189 1075Q189 1163 216.50 1234.50Q244 1306 295.50 1355.50Q347 1405 420.50 1432Q494 1459 587 1459Q624 1459 656 1454Q688 1449 721 1440L716 1304Q714 1274 689 1264Q664 1254 635 1254Q592 1254 559 1245Q526 1236 503 1214.50Q480 1193 468 1156.50Q456 1120 456 1066L456 1025L844 1025L844 1050Q844 1144 875.50 1225.50Q907 1307 972.50 1367.50Q1038 1428 1138.50 1462.50Q1239 1497 1377 1497Q1420 1497 1466 1492.50Q1512 1488 1545 1479L1536 1338Q1534 1314 1511 1308Q1488 1302 1458 1302Q1358 1302 1291 1285.50Q1224 1269 1184 1236Q1144 1203 1127.50 1154Q1111 1105 1111 1041L1111 1025L1757 1025L1757 0L1481 0L1481 833L1120 833L1120 0L844 0L844 833L465 833L465 0L189 0Z"  horiz-adv-x="1880" vert-adv-y="2000"  />

      
      <glyph glyph-name="uniFB02" unicode="&#xFB02;" d="M189 0L189 833L109 847Q78 853 58.50 869Q39 885 39 915L39 1025L189 1025L189 1065Q189 1146 215 1221Q241 1296 294.50 1354Q348 1412 430.50 1447Q513 1482 626 1482Q720 1482 803.50 1475.50Q887 1469 972 1469L1127 1469L1127 0L853 0L853 1282Q801 1284 751.50 1286.50Q702 1289 670 1289Q566 1289 511 1231.50Q456 1174 456 1065L456 1025L690 1025L690 833L465 833L465 0L189 0Z"  horiz-adv-x="1243" vert-adv-y="2000"  />

      
      <glyph glyph-name="uniFB04" unicode="&#xFB04;" d="M189 0L189 833L109 847Q78 853 58.50 869Q39 885 39 915L39 1025L189 1025L189 1075Q189 1163 216.50 1234.50Q244 1306 295 1355.50Q346 1405 420 1432Q494 1459 587 1459Q623 1459 655.50 1454Q688 1449 721 1440L715 1304Q713 1274 688.50 1264Q664 1254 634 1254Q592 1254 558.50 1245Q525 1236 502 1214.50Q479 1193 467 1156.50Q455 1120 455 1066L455 1025L844 1025L844 1065Q844 1146 870 1221Q896 1296 949.50 1354Q1003 1412 1085 1447Q1167 1482 1280 1482Q1374 1482 1458.50 1475.50Q1543 1469 1627 1469L1781 1469L1781 0L1507 0L1507 1282Q1455 1284 1405.50 1286.50Q1356 1289 1324 1289Q1220 1289 1165.50 1231.50Q1111 1174 1111 1065L1111 1025L1366 1025L1366 833L1119 833L1119 0L844 0L844 833L464 833L464 0L189 0Z"  horiz-adv-x="1897" vert-adv-y="2000"  />

      
      <glyph glyph-name="uni67" unicode="&#x67;" d="M498 554Q583 554 623.50 597Q664 640 664 708Q664 779 623.50 819.50Q583 860 498 860Q413 860 373 819.50Q333 779 333 708Q333 641 373.50 597.50Q414 554 498 554M759-42Q759-15 742 2Q725 19 696.50 29Q668 39 629 43.50Q590 48 546 50.50Q502 53 455 55Q408 57 363 62Q328 41 305.50 12.50Q283-16 283-52Q283-77 294.50-98Q306-119 333-134Q360-149 404-157.50Q448-166 514-166Q582-166 629-157Q676-148 705-131.50Q734-115 746.50-92Q759-69 759-42M1033 997L1033 896Q1033 872 1019.50 858Q1006 844 975 837L891 820Q908 771 908 715Q908 638 876.50 576.50Q845 515 790 471.50Q735 428 660 404.50Q585 381 498 381Q443 381 395 390Q353 364 353 333Q353 304 381.50 291Q410 278 456.50 272.50Q503 267 562.50 265.50Q622 264 683.50 259Q745 254 804.50 241.50Q864 229 910.50 200.50Q957 172 985.50 125Q1014 78 1014 4Q1014-65 980-130Q946-195 881.50-246Q817-297 723-328Q629-359 509-359Q390-359 302.50-336.50Q215-314 157.50-276.50Q100-239 72-190Q44-141 44-88Q44-19 86 29Q128 77 202 106Q163 128 139.50 163.50Q116 199 116 256Q116 302 149.50 353Q183 404 253 438Q174 480 128 550.50Q82 621 82 715Q82 792 113.50 854Q145 916 201 959.50Q257 1003 333 1026Q409 1049 498 1049Q630 1049 731 997L1033 997Z"  horiz-adv-x="1063" vert-adv-y="2000"  />

      
      <glyph glyph-name="uni68" unicode="&#x68;" d="M390 930Q419 956 450.50 977.50Q482 999 517.50 1014.50Q553 1030 593.50 1038.50Q634 1047 681 1047Q765 1047 830 1018Q895 989 939.50 937Q984 885 1006.50 813Q1029 741 1029 655L1029 0L754 0L754 655Q754 741 714 788.50Q674 836 596 836Q538 836 487 811Q436 786 390 741L390 0L114 0L114 1491L390 1491L390 930Z"  horiz-adv-x="1134" vert-adv-y="2000"  />

      
      <glyph glyph-name="uni0125" unicode="&#x0125;" d="M390 930Q419 956 450.50 977.50Q482 999 517.50 1014.50Q553 1030 593.50 1038.50Q634 1047 681 1047Q765 1047 830 1018Q895 989 939.50 937Q984 885 1006.50 813Q1029 741 1029 655L1029 0L754 0L754 655Q754 741 714 788.50Q674 836 596 836Q538 836 487 811Q436 786 390 741L390 0L114 0L114 1491L390 1491L390 930M618 1550L418 1550Q402 1550 378.50 1556Q355 1562 330 1591L262 1685Q257 1691 253.50 1697Q250 1703 246 1709Q242 1703 238.50 1697Q235 1691 230 1685L162 1591Q137 1562 113.50 1556Q90 1550 74 1550L-117 1550L125 1826L375 1826L618 1550Z"  horiz-adv-x="1134" vert-adv-y="2000"  />

      
      <glyph glyph-name="uni0127" unicode="&#x0127;" d="M389 896Q418 922 449.50 943.50Q481 965 516.50 980.50Q552 996 592.50 1004.50Q633 1013 680 1013Q764 1013 829 984Q894 955 938.50 903Q983 851 1005.50 779Q1028 707 1028 621L1028 0L753 0L753 621Q753 707 713 754.50Q673 802 595 802Q537 802 486 776.50Q435 751 389 707L389 0L114 0L114 1132L-25 1132L-25 1299L114 1299L114 1491L389 1491L389 1299L665 1299L665 1132L389 1132L389 896Z"  horiz-adv-x="1134" vert-adv-y="2000"  />

      
      <glyph glyph-name="uni69" unicode="&#x69;" d="M398 1031L398 0L122 0L122 1031L398 1031M431 1324Q431 1289 417 1259Q403 1229 379.50 1206Q356 1183 324.50 1170Q293 1157 257 1157Q223 1157 192.50 1170Q162 1183 139 1206Q116 1229 102.50 1259Q89 1289 89 1324Q89 1359 102.50 1389.50Q116 1420 139 1443Q162 1466 192.50 1479Q223 1492 257 1492Q293 1492 324.50 1479Q356 1466 379.50 1443Q403 1420 417 1389.50Q431 1359 431 1324Z"  horiz-adv-x="520" vert-adv-y="2000"  />

      
      <glyph glyph-name="uni012F" unicode="&#x012F;" d="M257 1157Q223 1157 192.50 1170Q162 1183 139 1206Q116 1229 102.50 1259Q89 1289 89 1324Q89 1359 102.50 1389.50Q116 1420 139 1443Q162 1466 192.50 1479Q223 1492 257 1492Q293 1492 324.50 1479Q356 1466 379.50 1443Q403 1420 417 1389.50Q431 1359 431 1324Q431 1289 417 1259Q403 1229 379.50 1206Q356 1183 324.50 1170Q293 1157 257 1157M470-295Q436-317 385.50-331.50Q335-346 278-346Q175-346 121.50-304.50Q68-263 68-198Q68-144 103.50-93Q139-42 210 0L122 0L122 1031L398 1031L398 0L373 0Q353-11 335-24.50Q317-38 303.50-54.50Q290-71 281.50-89.50Q273-108 273-129Q273-157 289.50-173Q306-189 336-189Q353-189 364-187.50Q375-186 381.50-183.50Q388-181 393-179.50Q398-178 403-178Q422-178 429-195L470-295Z"  horiz-adv-x="520" vert-adv-y="2000"  />

      
      <glyph glyph-name="uni0131" unicode="&#x0131;" d="M399 1031L399 0L123 0L123 1031L399 1031Z"  horiz-adv-x="522" vert-adv-y="2000"  />

      
      <glyph glyph-name="uni6a" unicode="&#x6a;" d="M398 1031L398-20Q398-90 380-151.50Q362-213 321.50-259Q281-305 215.50-332Q150-359 54-359Q18-359-13.50-354Q-45-349-78-340L-68-194Q-66-174-53.50-166Q-41-158-4-158Q33-158 57-151.50Q81-145 95.50-129Q110-113 116-86.50Q122-60 122-20L122 1031L398 1031M431 1324Q431 1289 417 1259Q403 1229 379.50 1206Q356 1183 324.50 1170Q293 1157 257 1157Q223 1157 192.50 1170Q162 1183 139 1206Q116 1229 102.50 1259Q89 1289 89 1324Q89 1359 102.50 1389.50Q116 1420 139 1443Q162 1466 192.50 1479Q223 1492 257 1492Q293 1492 324.50 1479Q356 1466 379.50 1443Q403 1420 417 1389.50Q431 1359 431 1324Z"  horiz-adv-x="520" vert-adv-y="2000"  />

      
      <glyph glyph-name="uni0237" unicode="&#x0237;" d="M399 1031L399-20Q399-90 381-151.50Q363-213 322.50-259Q282-305 216.50-332Q151-359 55-359Q18-359-13-354Q-44-349-77-340L-67-194Q-65-174-52.50-166Q-40-158-3-158Q34-158 58-151.50Q82-145 96.50-129Q111-113 117-86.50Q123-60 123-20L123 1031L399 1031Z"  horiz-adv-x="522" vert-adv-y="2000"  />

      
      <glyph glyph-name="uni6b" unicode="&#x6b;" d="M390 1491L390 645L436 645Q462 645 477 652.50Q492 660 507 680L735 984Q752 1007 773.50 1019Q795 1031 828 1031L1080 1031L784 655Q749 608 703 581Q726 565 743 544Q760 523 776 497L1095 0L847 0Q815 0 792 10.50Q769 21 754 48L522 427Q508 451 493 458Q478 465 448 465L390 465L390 0L114 0L114 1491L390 1491Z"  horiz-adv-x="1091" vert-adv-y="2000"  />

      
      <glyph glyph-name="uni0138" unicode="&#x0138;" d="M390 1031L390 645L436 645Q462 645 477 652.50Q492 660 507 680L735 984Q752 1007 773.50 1019Q795 1031 828 1031L1080 1031L784 655Q749 608 703 581Q726 565 743 544Q760 523 776 497L1095 0L847 0Q815 0 792 10.50Q769 21 754 48L522 427Q508 451 493 458Q478 465 448 465L390 465L390 0L114 0L114 1031L390 1031Z"  horiz-adv-x="1091" vert-adv-y="2000"  />

      
      <glyph glyph-name="uni0142" unicode="&#x0142;" d="M649 1041L649 885Q649 842 612 827L476 771L476 0L200 0L200 676L37 611L37 772Q37 808 70 823L200 878L200 1491L476 1491L476 973L649 1041Z"  horiz-adv-x="677" vert-adv-y="2000"  />

      
      <glyph glyph-name="uni013E" unicode="&#x013E;" d="M392 1491L392 0L116 0L116 1491L392 1491M727 1493Q757 1493 764 1479.50Q771 1466 771 1454Q771 1445 767.50 1430Q764 1415 753 1385.50Q742 1356 722.50 1308.50Q703 1261 670 1188Q655 1158 632.50 1149Q610 1140 575 1140L477 1140L541 1493L727 1493Z"  horiz-adv-x="507" vert-adv-y="2000"  />

      
      <glyph glyph-name="uni6d" unicode="&#x6d;" d="M114 0L114 1031L284 1031Q336 1031 353 983L369 916Q396 944 424.50 968Q453 992 486 1009.50Q519 1027 557.50 1037Q596 1047 641 1047Q736 1047 798 996.50Q860 946 892 862Q917 911 953.50 946.50Q990 982 1033.50 1004Q1077 1026 1125.50 1036.50Q1174 1047 1223 1047Q1310 1047 1377 1021Q1444 995 1489.50 944.50Q1535 894 1559 821Q1583 748 1583 655L1583 0L1307 0L1307 655Q1307 836 1152 836Q1117 836 1087.50 824.50Q1058 813 1035.50 790Q1013 767 1000.50 733Q988 699 988 655L988 0L712 0L712 655Q712 753 673.50 794.50Q635 836 560 836Q512 836 469.50 813.50Q427 791 390 751L390 0L114 0Z"  horiz-adv-x="1687" vert-adv-y="2000"  />

      
      <glyph glyph-name="uni6e" unicode="&#x6e;" d="M370 911Q401 941 434.50 966Q468 991 505.50 1009Q543 1027 586.50 1037Q630 1047 681 1047Q765 1047 830 1018Q895 989 939.50 937Q984 885 1006.50 813Q1029 741 1029 655L1029 0L754 0L754 655Q754 741 714 788.50Q674 836 596 836Q538 836 487 811Q436 786 390 741L390 0L114 0L114 1031L284 1031Q336 1031 353 983L370 911Z"  horiz-adv-x="1134" vert-adv-y="2000"  />

      
      <glyph glyph-name="uni014B" unicode="&#x014B;" d="M370 911Q401 941 434.50 966Q468 991 505.50 1009Q543 1027 586.50 1037Q630 1047 681 1047Q765 1047 830 1018Q895 989 939.50 937Q984 885 1006.50 813Q1029 741 1029 655L1029 49Q1029-40 1006.50-114.50Q984-189 937-243.50Q890-298 815.50-328.50Q741-359 638-359Q610-359 586-356.50Q562-354 539-349Q516-344 492.50-336.50Q469-329 444-318L474-200Q483-168 499-158Q515-148 535-148Q551-148 566.50-153.50Q582-159 613-159Q684-159 719-116.50Q754-74 754 17L754 655Q754 741 714 788.50Q674 836 596 836Q538 836 487 811Q436 786 390 741L390 0L114 0L114 1031L284 1031Q336 1031 353 983L370 911Z"  horiz-adv-x="1134" vert-adv-y="2000"  />

      
      <glyph glyph-name="uni6f" unicode="&#x6f;" d="M579 1047Q695 1047 790 1010Q885 973 953 904.50Q1021 836 1058 738Q1095 640 1095 517Q1095 394 1058 295.50Q1021 197 953 128Q885 59 790 22Q695-15 579-15Q462-15 366.50 22Q271 59 203 128Q135 197 97.50 295.50Q60 394 60 517Q60 640 97.50 738Q135 836 203 904.50Q271 973 366.50 1010Q462 1047 579 1047M579 192Q697 192 754 273.50Q811 355 811 516Q811 676 754 757.50Q697 839 579 839Q458 839 401 757.50Q344 676 344 516Q344 355 401 273.50Q458 192 579 192Z"  horiz-adv-x="1155" vert-adv-y="2000"  />

      
      <glyph glyph-name="unif8" unicode="&#xf8;" d="M457 210Q511 184 579 184Q697 184 762.50 269.50Q828 355 828 516Q828 566 822.50 607.50Q817 649 806 684L457 210M699 821Q648 848 579 848Q458 848 392 762Q326 676 326 516Q326 465 332 423Q338 381 349 346L699 821M962 896Q1026 827 1060.50 731.50Q1095 636 1095 517Q1095 394 1058 295.50Q1021 197 953 128Q885 59 790 22Q695-15 579-15Q439-15 330 38L303 1Q288-21 268.50-36Q249-51 227-60Q205-69 182.50-73Q160-77 138-77L38-77L195 136Q130 205 95 301Q60 397 60 517Q60 640 97.50 738Q135 836 203 904.50Q271 973 366.50 1010Q462 1047 579 1047Q718 1047 827 994L877 1063Q890 1083 902 1096.50Q914 1110 928 1118.50Q942 1127 959.50 1130.50Q977 1134 1001 1134L1137 1134L962 896Z"  horiz-adv-x="1154" vert-adv-y="2000"  />

      
      <glyph glyph-name="uni0153" unicode="&#x0153;" d="M560 192Q670 192 722 273.50Q774 355 774 516Q774 676 722 757.50Q670 839 560 839Q448 839 396 757.50Q344 676 344 516Q344 355 396 273.50Q448 192 560 192M1449 617Q1449 661 1438.50 703.50Q1428 746 1406 779Q1384 812 1348.50 832.50Q1313 853 1264 853Q1167 853 1114.50 791.50Q1062 730 1048 617L1449 617M1049 453Q1064 319 1129.50 256.50Q1195 194 1296 194Q1350 194 1388 207.50Q1426 221 1456 237.50Q1486 254 1510.50 267.50Q1535 281 1561 281Q1591 281 1609 257L1691 157Q1647 106 1595 72.50Q1543 39 1488 19.50Q1433 0 1377.50-7.50Q1322-15 1270-15Q1165-15 1071 31Q977 77 914 175Q853 83 756.50 34Q660-15 534-15Q432-15 345 22Q258 59 194.50 128Q131 197 95.50 295.50Q60 394 60 517Q60 640 96 738Q132 836 196 904.50Q260 973 349 1010Q438 1047 544 1047Q665 1047 759 999Q853 951 913 861Q970 946 1060.50 996.50Q1151 1047 1276 1047Q1366 1047 1442.50 1013Q1519 979 1575 915Q1631 851 1663 760.50Q1695 670 1695 557Q1695 526 1692.50 506Q1690 486 1683 474Q1676 462 1664.50 457.50Q1653 453 1634 453L1049 453Z"  horiz-adv-x="1754" vert-adv-y="2000"  />

      
      <glyph glyph-name="uni70" unicode="&#x70;" d="M390 272Q429 227 474.50 209Q520 191 572 191Q622 191 663 210Q704 229 733.50 269.50Q763 310 779 373Q795 436 795 523Q795 609 781.50 669Q768 729 743.50 766Q719 803 684 819.50Q649 836 606 836Q533 836 483.50 807.50Q434 779 390 724L390 272M374 896Q405 930 440 958.50Q475 987 515 1007.50Q555 1028 601 1039.50Q647 1051 701 1051Q784 1051 853.50 1015.50Q923 980 973 912.50Q1023 845 1051 747Q1079 649 1079 523Q1079 407 1047.50 308.50Q1016 210 958 138Q900 66 818.50 25.50Q737-15 637-15Q553-15 494.50 10Q436 35 390 78L390-333L114-333L114 1031L284 1031Q336 1031 353 983L374 896Z"  horiz-adv-x="1142" vert-adv-y="2000"  />

      
      <glyph glyph-name="unife" unicode="&#xfe;" d="M390 272Q429 227 474.50 209Q520 191 572 191Q622 191 663 210Q704 229 733.50 269.50Q763 310 779 373Q795 436 795 523Q795 609 781.50 669Q768 729 743.50 766Q719 803 684 819.50Q649 836 606 836Q533 836 483.50 807.50Q434 779 390 724L390 272M390 912Q450 974 525 1010.50Q600 1047 701 1047Q784 1047 853.50 1012Q923 977 973 910.50Q1023 844 1051 746.50Q1079 649 1079 523Q1079 407 1047.50 308.50Q1016 210 958 138Q900 66 818.50 25.50Q737-15 637-15Q551-15 493.50 15.50Q436 46 390 96L390-333L114-333L114 1491L390 1491L390 912Z"  horiz-adv-x="1142" vert-adv-y="2000"  />

      
      <glyph glyph-name="uni71" unicode="&#x71;" d="M751 763Q712 808 666.50 826Q621 844 570 844Q520 844 479 825Q438 806 408.50 765.50Q379 725 363 662Q347 599 347 512Q347 426 360 366Q373 306 397.50 269Q422 232 457 215.50Q492 199 535 199Q608 199 657.50 228Q707 257 751 310L751 763M1027 1031L1027-333L751-333L751 122Q691 60 616 22.50Q541-15 440-15Q357-15 288 20Q219 55 168.50 122.50Q118 190 90 288Q62 386 62 512Q62 627 93.50 726Q125 825 183 897Q241 969 323 1010Q405 1051 505 1051Q552 1051 591 1042.50Q630 1034 662.50 1019Q695 1004 722.50 982Q750 960 776 933L789 983Q804 1031 857 1031L1027 1031Z"  horiz-adv-x="1141" vert-adv-y="2000"  />

      
      <glyph glyph-name="uni72" unicode="&#x72;" d="M373 861Q422 949 486 1000Q550 1051 636 1051Q706 1051 750 1018L732 814Q727 794 716.50 786.50Q706 779 688 779Q672 779 642 783.50Q612 788 586 788Q548 788 518.50 777Q489 766 466 746Q443 726 424.50 697Q406 668 390 631L390 0L114 0L114 1031L277 1031Q319 1031 335 1016Q351 1001 358 964L373 861Z"  horiz-adv-x="754" vert-adv-y="2000"  />

      
      <glyph glyph-name="uni73" unicode="&#x73;" d="M755 819Q744 802 732.50 794.50Q721 787 701 787Q681 787 660 797Q639 807 613 818.50Q587 830 553.50 840Q520 850 476 850Q409 850 372 822.50Q335 795 335 750Q335 719 356 698Q377 677 411.50 661.50Q446 646 490 632.50Q534 619 580.50 603Q627 587 671 566Q715 545 749.50 513.50Q784 482 805 437.50Q826 393 826 330Q826 255 798.50 191.50Q771 128 718 82Q665 36 586 10Q507-16 404-16Q351-16 299-6.50Q247 3 200 20.50Q153 38 112 61Q71 84 41 111L105 214Q116 232 132.50 242Q149 252 175 252Q200 252 221 239.50Q242 227 268 212.50Q294 198 329.50 185.50Q365 173 418 173Q458 173 487 182Q516 191 534 206.50Q552 222 560.50 241.50Q569 261 569 282Q569 316 547.50 337.50Q526 359 491.50 375Q457 391 412 404Q367 417 320.50 433Q274 449 229.50 471Q185 493 150.50 526.50Q116 560 94.50 609Q73 658 73 728Q73 792 98 849.50Q123 907 173 951Q223 995 297.50 1021Q372 1047 470 1047Q580 1047 670 1011Q760 975 818 917L755 819Z"  horiz-adv-x="885" vert-adv-y="2000"  />

      
      <glyph glyph-name="uni015F" unicode="&#x015F;" d="M755 819Q744 802 732.50 794.50Q721 787 701 787Q681 787 660 797Q639 807 613 818.50Q587 830 553.50 840Q520 850 476 850Q409 850 372 822.50Q335 795 335 750Q335 719 356 698Q377 677 411.50 661.50Q446 646 490 632.50Q534 619 580.50 603Q627 587 671 566Q715 545 749.50 513.50Q784 482 805 437.50Q826 393 826 330Q826 264 805 206.50Q784 149 742.50 105Q701 61 639.50 31Q578 1 498-10L485-56Q532-67 564-82.50Q596-98 615.50-117Q635-136 643.50-159Q652-182 652-207Q652-242 633.50-269.50Q615-297 581.50-316Q548-335 501-345.50Q454-356 397-356Q356-356 320.50-351.50Q285-347 250-337L275-252Q281-228 306-228Q320-228 336-233.50Q352-239 378-239Q408-239 422-228Q436-217 436-202Q436-177 402.50-165.50Q369-154 295-143L340-12Q296-7 253 4Q210 15 171.50 31.50Q133 48 99.50 68Q66 88 41 111L105 214Q116 232 132.50 242Q149 252 175 252Q200 252 221 239.50Q242 227 268 212.50Q294 198 329.50 185.50Q365 173 418 173Q458 173 487 182Q516 191 534 206.50Q552 222 560.50 241.50Q569 261 569 282Q569 316 547.50 337.50Q526 359 491.50 375Q457 391 412 404Q367 417 320.50 433Q274 449 229.50 471Q185 493 150.50 526.50Q116 560 94.50 609Q73 658 73 728Q73 792 98 849.50Q123 907 173 951Q223 995 297.50 1021Q372 1047 470 1047Q580 1047 670 1011Q760 975 818 917L755 819Z"  horiz-adv-x="885" vert-adv-y="2000"  />

      
      <glyph glyph-name="unidf" unicode="&#xdf;" d="M653 1477Q735 1477 800.50 1460.50Q866 1444 916 1417Q966 1390 1001.50 1354Q1037 1318 1060 1279.50Q1083 1241 1093.50 1202Q1104 1163 1104 1129Q1104 1072 1085 1031.50Q1066 991 1038 961Q1010 931 977 908.50Q944 886 916 866Q888 846 869 824.50Q850 803 850 776Q850 745 874 721.50Q898 698 934.50 675Q971 652 1013 625Q1055 598 1091.50 559.50Q1128 521 1152 467Q1176 413 1176 337Q1176 250 1143.50 183.50Q1111 117 1055.50 73Q1000 29 927 6.50Q854-16 773-16Q728-16 682.50-6.50Q637 3 595 20.50Q553 38 515 61Q477 84 447 111L511 214Q522 232 538.50 242Q555 252 581 252Q606 252 627.50 239.50Q649 227 673 212.50Q697 198 726.50 185.50Q756 173 798 173Q850 173 884 206.50Q918 240 918 294Q918 338 891.50 367.50Q865 397 825.50 421.50Q786 446 739.50 470Q693 494 653.50 527Q614 560 587.50 606Q561 652 561 722Q561 781 581.50 822.50Q602 864 632.50 895.50Q663 927 698.50 952.50Q734 978 764.50 1003.50Q795 1029 815.50 1058.50Q836 1088 836 1128Q836 1161 825 1189Q814 1217 790 1237.50Q766 1258 729 1269.50Q692 1281 641 1281Q512 1281 450.50 1200.50Q389 1120 389 972L389 0L114 0L114 981Q114 1087 151 1178Q188 1269 257.50 1335.50Q327 1402 427 1439.50Q527 1477 653 1477Z"  horiz-adv-x="1224" vert-adv-y="2000"  />

      
      <glyph glyph-name="uni017F" unicode="&#x017F;" d="M189 1093Q189 1181 216.50 1252.50Q244 1324 295.50 1373.50Q347 1423 420.50 1450Q494 1477 587 1477Q624 1477 656.50 1472.50Q689 1468 722 1459L713 1317Q711 1294 687.50 1287.50Q664 1281 635 1281Q592 1281 560 1271Q528 1261 507 1237.50Q486 1214 475.50 1176.50Q465 1139 465 1085L465 0L189 0L189 833L109 847Q78 853 58.50 869Q39 885 39 915L39 1025L189 1025L189 1093Z"  horiz-adv-x="618" vert-adv-y="2000"  />

      
      <glyph glyph-name="uni74" unicode="&#x74;" d="M470-16Q400-16 346 4.50Q292 25 255 63Q218 101 199 155Q180 209 180 277L180 833L83 833Q61 833 45.50 847Q30 861 30 889L30 997L195 1027L251 1294Q262 1339 312 1339L456 1339L456 1025L722 1025L722 833L456 833L456 295Q456 252 476.50 227Q497 202 535 202Q555 202 569 206.50Q583 211 593 216.50Q603 222 611.50 226.50Q620 231 629 231Q641 231 649 225.50Q657 220 665 207L748 75Q691 30 619 7Q547-16 470-16Z"  horiz-adv-x="755" vert-adv-y="2000"  />

      
      <glyph glyph-name="uni0165" unicode="&#x0165;" d="M470-16Q400-16 346 4.50Q292 25 255 63Q218 101 199 155Q180 209 180 277L180 833L83 833Q61 833 45.50 847Q30 861 30 889L30 997L195 1027L251 1294Q262 1339 312 1339L456 1339L456 1025L722 1025L722 833L456 833L456 295Q456 252 476.50 227Q497 202 535 202Q555 202 569 206.50Q583 211 593 216.50Q603 222 611.50 226.50Q620 231 629 231Q641 231 649 225.50Q657 220 665 207L748 75Q691 30 619 7Q547-16 470-16M850 1493Q880 1493 887 1479.50Q894 1466 894 1454Q894 1445 890.50 1430Q887 1415 876 1385.50Q865 1356 845.50 1308.50Q826 1261 793 1188Q778 1158 755.50 1149Q733 1140 698 1140L600 1140L664 1493L850 1493Z"  horiz-adv-x="754" vert-adv-y="2000"  />

      
      <glyph glyph-name="uni0167" unicode="&#x0167;" d="M57 695L182 695L182 833L85 833Q63 833 47.50 847Q32 861 32 889L32 997L197 1027L253 1294Q264 1339 314 1339L458 1339L458 1025L724 1025L724 833L458 833L458 695L733 695L733 528L458 528L458 295Q458 252 478.50 227Q499 202 537 202Q557 202 571 206.50Q585 211 595 216.50Q605 222 613.50 226.50Q622 231 631 231Q643 231 651 225.50Q659 220 667 207L750 75Q693 30 621 7Q549-16 472-16Q402-16 348 4.50Q294 25 257 63Q220 101 201 155Q182 209 182 277L182 528L57 528L57 695Z"  horiz-adv-x="763" vert-adv-y="2000"  />

      
      <glyph glyph-name="uni75" unicode="&#x75;" d="M1019 1031L1019 0L849 0Q796 0 781 48L763 120Q732 90 699 65Q666 40 628.50 22Q591 4 547.50-6Q504-16 453-16Q369-16 303.50 13Q238 42 194 94Q150 146 127 218Q104 290 104 376L104 1031L380 1031L380 376Q380 290 419.50 242.50Q459 195 537 195Q595 195 646 220.50Q697 246 743 290L743 1031L1019 1031Z"  horiz-adv-x="1133" vert-adv-y="2000"  />

      
      <glyph glyph-name="uni0173" unicode="&#x0173;" d="M1116-295Q1082-317 1031.50-331.50Q981-346 924-346Q821-346 767.50-304.50Q714-263 714-198Q714-144 749.50-93Q785-42 856 0L849 0Q796 0 781 48L763 120Q732 90 699 65Q666 40 628.50 22Q591 4 547.50-6Q504-16 453-16Q369-16 303.50 13Q238 42 194 94Q150 146 127 218Q104 290 104 376L104 1031L380 1031L380 376Q380 290 419.50 242.50Q459 195 537 195Q595 195 646 220.50Q697 246 743 290L743 1031L1019 1031L1019 0Q999-11 981-24.50Q963-38 949.50-54.50Q936-71 927.50-89.50Q919-108 919-129Q919-157 935.50-173Q952-189 982-189Q999-189 1010-187.50Q1021-186 1027.50-183.50Q1034-181 1039-179.50Q1044-178 1049-178Q1068-178 1075-195L1116-295Z"  horiz-adv-x="1133" vert-adv-y="2000"  />

      
      <glyph glyph-name="uni76" unicode="&#x76;" d="M1063 1031L658 0L408 0L3 1031L232 1031Q262 1031 282 1017Q302 1003 310 981L483 471Q500 419 513 369.50Q526 320 536 270Q547 320 560.50 369.50Q574 419 592 471L771 981Q778 1003 798 1017Q818 1031 845 1031L1063 1031Z"  horiz-adv-x="1066" vert-adv-y="2000"  />

      
      <glyph glyph-name="uni77" unicode="&#x77;" d="M1607 1031L1283 0L1060 0Q1043 0 1029.50 11Q1016 22 1009 48L841 606Q831 638 823.50 669.50Q816 701 810 733Q803 701 795.50 668.50Q788 636 778 604L608 48Q594 0 548 0L336 0L12 1031L232 1031Q262 1031 282.50 1017Q303 1003 310 981L437 471Q449 422 458 376Q467 330 475 285Q487 330 500.50 376Q514 422 529 471L680 983Q687 1004 707 1018Q727 1032 754 1032L876 1032Q905 1032 925.50 1018Q946 1004 953 983L1099 471Q1113 423 1126 376.50Q1139 330 1150 283Q1158 329 1167.50 375.50Q1177 422 1190 471L1323 981Q1330 1003 1350 1017Q1370 1031 1397 1031L1607 1031Z"  horiz-adv-x="1619" vert-adv-y="2000"  />

      
      <glyph glyph-name="uni78" unicode="&#x78;" d="M1065 0L800 0Q770 0 751.50 15Q733 30 722 50L519 389Q510 355 493 329L319 50Q307 31 289.50 15.50Q272 0 245 0L-1 0L349 532L13 1031L278 1031Q308 1031 322 1023Q336 1015 347 997L549 670Q554 687 562 704.50Q570 722 581 739L736 992Q760 1031 798 1031L1051 1031L715 544L1065 0Z"  horiz-adv-x="1064" vert-adv-y="2000"  />

      
      <glyph glyph-name="uni79" unicode="&#x79;" d="M1070 1031L514-277Q501-305 482.50-319Q464-333 424-333L219-333L414 83L0 1031L242 1031Q275 1031 293 1016Q311 1001 319 981L515 488Q526 459 534.50 429.50Q543 400 551 371Q569 430 592 489L774 981Q782 1003 803 1017Q824 1031 849 1031L1070 1031Z"  horiz-adv-x="1064" vert-adv-y="2000"  />

      
      <glyph glyph-name="uni7a" unicode="&#x7a;" d="M867 919Q867 890 857 862.50Q847 835 831 818L368 208L854 208L854 0L49 0L49 114Q49 131 58.50 157Q68 183 85 206L552 823L78 823L78 1031L867 1031L867 919Z"  horiz-adv-x="925" vert-adv-y="2000"  />

      
      <glyph glyph-name="uniaa" unicode="&#xaa;" d="M437 1087Q384 1085 350 1079Q316 1073 296.50 1063.50Q277 1054 269.50 1041.50Q262 1029 262 1015Q262 987 278 976.50Q294 966 326 966Q359 966 384.50 977.50Q410 989 437 1015L437 1087M103 1373Q160 1425 229 1448.50Q298 1472 379 1472Q437 1472 483.50 1453.50Q530 1435 562.50 1402Q595 1369 612.50 1324Q630 1279 630 1227L630 841L537 841Q510 841 496.50 849Q483 857 471 880L459 912Q435 892 413.50 877.50Q392 863 369.50 853Q347 843 321 838Q295 833 262 833Q176 833 124.50 877.50Q73 922 73 1006Q73 1038 89.50 1072.50Q106 1107 147 1136Q188 1165 258.50 1184.50Q329 1204 437 1206L437 1227Q437 1278 415.50 1297.50Q394 1317 354 1317Q322 1317 301.50 1310.50Q281 1304 264.50 1295.50Q248 1287 232 1280.50Q216 1274 194 1274Q174 1274 160.50 1286Q147 1298 137 1311L103 1373Z"  horiz-adv-x="734" vert-adv-y="2000"  />

      
      <glyph glyph-name="uniba" unicode="&#xba;" d="M402 1470Q475 1470 536.50 1448Q598 1426 642 1385Q686 1344 710.50 1285Q735 1226 735 1152Q735 1077 710.50 1017Q686 957 642 915.50Q598 874 536.50 851.50Q475 829 402 829Q327 829 265 851.50Q203 874 158.50 915.50Q114 957 89.50 1017Q65 1077 65 1152Q65 1226 89.50 1285Q114 1344 158.50 1385Q203 1426 265 1448Q327 1470 402 1470M402 987Q462 987 490.50 1026Q519 1065 519 1150Q519 1236 490.50 1274Q462 1312 402 1312Q338 1312 309 1274Q280 1236 280 1150Q280 1065 309 1026Q338 987 402 987Z"  horiz-adv-x="800" vert-adv-y="2000"  />

      
      <glyph glyph-name="uni207F" unicode="&#x207F;" d="M228 1388Q244 1403 260.50 1416Q277 1429 296 1438.50Q315 1448 337 1453.50Q359 1459 387 1459Q431 1459 465 1443.50Q499 1428 522 1400.50Q545 1373 557 1336Q569 1299 569 1256L569 918L378 918L378 1256Q378 1311 327 1311Q309 1311 292.50 1304Q276 1297 259 1285L259 918L68 918L68 1451L170 1451Q189 1451 200.50 1442.50Q212 1434 220 1414L228 1388Z"  horiz-adv-x="630" vert-adv-y="2000"  />

      
      <glyph glyph-name="uni60" unicode="&#x60;" d="M316 1467Q359 1467 380.50 1453Q402 1439 418 1411L557 1167L401 1167Q370 1167 350.50 1175.50Q331 1184 311 1205L58 1467L316 1467Z"  horiz-adv-x="800" vert-adv-y="2000"  />

      
      <glyph glyph-name="unib4" unicode="&#xb4;" d="M769 1467L516 1205Q496 1184 476.50 1175.50Q457 1167 426 1167L260 1167L400 1411Q415 1439 436.50 1453Q458 1467 502 1467L769 1467Z"  horiz-adv-x="800" vert-adv-y="2000"  />

      
      <glyph glyph-name="uni02C6" unicode="&#x02C6;" d="M761 1168L577 1168Q561 1168 546 1173.50Q531 1179 515 1194L427 1289Q422 1294 416 1300.50Q410 1307 405 1315Q393 1300 382 1289L292 1194Q264 1168 230 1168L39 1168L271 1451L529 1451L761 1168Z"  horiz-adv-x="800" vert-adv-y="2000"  />

      
      <glyph glyph-name="uni02C7" unicode="&#x02C7;" d="M761 1451L529 1168L271 1168L39 1451L230 1451Q247 1451 261.50 1445.50Q276 1440 284 1433L380 1331Q392 1319 404 1304Q410 1312 415.50 1318.50Q421 1325 427 1331L523 1433Q531 1439 546 1445Q561 1451 577 1451L761 1451Z"  horiz-adv-x="800" vert-adv-y="2000"  />

      
      <glyph glyph-name="uni0315" unicode="&#x0315;" d="M512 1493Q542 1493 549 1479.50Q556 1466 556 1454Q556 1445 552.50 1430Q549 1415 538 1385.50Q527 1356 507.50 1308.50Q488 1261 455 1188Q440 1158 417.50 1149Q395 1140 360 1140L262 1140L326 1493L512 1493Z"  horiz-adv-x="800" vert-adv-y="2000"  />

      
      <glyph glyph-name="uni02DC" unicode="&#x02DC;" d="M506 1372Q533 1372 549 1386.50Q565 1401 565 1443L733 1443Q733 1384 716.50 1336Q700 1288 671 1254.50Q642 1221 602 1202.50Q562 1184 516 1184Q480 1184 448.50 1196.50Q417 1209 389.50 1223.50Q362 1238 339 1250.50Q316 1263 298 1263Q271 1263 255.50 1247.50Q240 1232 240 1190L70 1190Q70 1249 86.50 1297Q103 1345 132.50 1379Q162 1413 201.50 1431.50Q241 1450 287 1450Q324 1450 356 1438Q388 1426 415 1411Q442 1396 464.50 1384Q487 1372 506 1372Z"  horiz-adv-x="800" vert-adv-y="2000"  />

      
      <glyph glyph-name="unia8" unicode="&#xa8;" d="M341 1294Q341 1264 329 1238Q317 1212 296.50 1192.50Q276 1173 248.50 1162Q221 1151 190 1151Q161 1151 134.50 1162Q108 1173 88 1192.50Q68 1212 56 1238Q44 1264 44 1294Q44 1324 56 1351Q68 1378 88 1398.50Q108 1419 134.50 1430.50Q161 1442 190 1442Q221 1442 248.50 1430.50Q276 1419 296.50 1398.50Q317 1378 329 1351Q341 1324 341 1294M756 1294Q756 1264 744 1238Q732 1212 712 1192.50Q692 1173 664.50 1162Q637 1151 606 1151Q576 1151 549 1162Q522 1173 502 1192.50Q482 1212 470.50 1238Q459 1264 459 1294Q459 1324 470.50 1351Q482 1378 502 1398.50Q522 1419 549 1430.50Q576 1442 606 1442Q637 1442 664.50 1430.50Q692 1419 712 1398.50Q732 1378 744 1351Q756 1324 756 1294Z"  horiz-adv-x="800" vert-adv-y="2000"  />

      
      <glyph glyph-name="uniaf" unicode="&#xaf;" d="M96 1381L704 1381L704 1209L96 1209L96 1381Z"  horiz-adv-x="800" vert-adv-y="2000"  />

      
      <glyph glyph-name="uni02C9" unicode="&#x02C9;" d="M96 1381L704 1381L704 1209L96 1209L96 1381Z"  horiz-adv-x="800" vert-adv-y="2000"  />

      
      <glyph glyph-name="uni02D8" unicode="&#x02D8;" d="M400 1160Q311 1160 250.50 1183Q190 1206 153.50 1246Q117 1286 101.50 1339Q86 1392 86 1451L279 1451Q279 1422 284 1399.50Q289 1377 302.50 1361.50Q316 1346 339.50 1338Q363 1330 400 1330Q437 1330 460.50 1338Q484 1346 497.50 1361.50Q511 1377 516 1399.50Q521 1422 521 1451L714 1451Q714 1392 698.50 1339Q683 1286 646.50 1246Q610 1206 549.50 1183Q489 1160 400 1160Z"  horiz-adv-x="800" vert-adv-y="2000"  />

      
      <glyph glyph-name="uni02DA" unicode="&#x02DA;" d="M168 1329Q168 1377 187 1416.50Q206 1456 237.50 1483.50Q269 1511 310.50 1526.50Q352 1542 398 1542Q445 1542 488 1526.50Q531 1511 563.50 1483.50Q596 1456 615 1416.50Q634 1377 634 1329Q634 1282 615 1244Q596 1206 563.50 1179Q531 1152 488 1137Q445 1122 398 1122Q352 1122 310.50 1137Q269 1152 237.50 1179Q206 1206 187 1244Q168 1282 168 1329M316 1329Q316 1291 338 1267.50Q360 1244 402 1244Q440 1244 463 1267.50Q486 1291 486 1329Q486 1369 463 1392.50Q440 1416 402 1416Q360 1416 338 1392.50Q316 1369 316 1329Z"  horiz-adv-x="800" vert-adv-y="2000"  />

      
      <glyph glyph-name="uni02DD" unicode="&#x02DD;" d="M537 1467L337 1205Q320 1182 299 1174.50Q278 1167 247 1167L134 1167L256 1411Q270 1439 292.50 1453Q315 1467 358 1467L537 1467M899 1467L644 1205Q624 1184 604.50 1175.50Q585 1167 554 1167L424 1167L601 1411Q610 1424 619 1434.50Q628 1445 639.50 1452Q651 1459 666.50 1463Q682 1467 703 1467L899 1467Z"  horiz-adv-x="800" vert-adv-y="2000"  />

      
      <glyph glyph-name="uni02D9" unicode="&#x02D9;" d="M572 1326Q572 1292 558 1261.50Q544 1231 520.50 1208.50Q497 1186 465.50 1172.50Q434 1159 398 1159Q364 1159 333.50 1172.50Q303 1186 280 1208.50Q257 1231 243.50 1261.50Q230 1292 230 1326Q230 1361 243.50 1391.50Q257 1422 280 1445Q303 1468 333.50 1481.50Q364 1495 398 1495Q434 1495 465.50 1481.50Q497 1468 520.50 1445Q544 1422 558 1391.50Q572 1361 572 1326Z"  horiz-adv-x="800" vert-adv-y="2000"  />

      
      <glyph glyph-name="unib8" unicode="&#xb8;" d="M459-56Q506-67 538-82.50Q570-98 589.50-117Q609-136 617.50-159Q626-182 626-207Q626-242 607.50-269.50Q589-297 555.50-316Q522-335 475-345.50Q428-356 371-356Q330-356 294.50-351.50Q259-347 224-337L249-252Q255-228 280-228Q294-228 310-233.50Q326-239 352-239Q382-239 396-228Q410-217 410-202Q410-177 376.50-165.50Q343-154 269-143L331 39L485 39L459-56Z"  horiz-adv-x="800" vert-adv-y="2000"  />

      
      <glyph glyph-name="uni02DB" unicode="&#x02DB;" d="M541-178Q560-178 567-195L608-295Q574-317 523.50-331.50Q473-346 416-346Q313-346 259.50-304.50Q206-263 206-198Q206-141 247-86.50Q288-32 369 12L511 0Q491-11 473-24.50Q455-38 441.50-54.50Q428-71 419.50-89.50Q411-108 411-129Q411-157 427.50-173Q444-189 474-189Q491-189 502-187.50Q513-186 519.50-183.50Q526-181 531-179.50Q536-178 541-178Z"  horiz-adv-x="800" vert-adv-y="2000"  />

      
      <glyph glyph-name="uni0393" unicode="&#x0393;" d="M1076 1224L454 1224L454 0L152 0L152 1451L1076 1451L1076 1224Z"  horiz-adv-x="1106" vert-adv-y="2000"  />

      
      <glyph glyph-name="uni0394" unicode="&#x0394;" d="M321 233L1060 233L760 995Q745 1033 728 1086Q711 1139 696 1200Q681 1137 664 1085Q647 1033 631 993L321 233M1360 257Q1395 174 1395 84L1395 0L14 0L14 84Q14 163 49 253L555 1451L861 1451L1360 257Z"  horiz-adv-x="1411" vert-adv-y="2000"  />

      
      <glyph glyph-name="uni0398" unicode="&#x0398;" d="M549 845L1071 845L1071 609L549 609L549 845M1554 726Q1554 567 1500.50 431Q1447 295 1349.50 196Q1252 97 1115 40.50Q978-16 811-16Q644-16 507 40.50Q370 97 272 196Q174 295 120.50 431Q67 567 67 726Q67 885 120.50 1020.50Q174 1156 272 1255Q370 1354 507 1410.50Q644 1467 811 1467Q978 1467 1115 1410.50Q1252 1354 1349.50 1254.50Q1447 1155 1500.50 1019.50Q1554 884 1554 726M1247 726Q1247 840 1217 930.50Q1187 1021 1130.50 1084.50Q1074 1148 993.50 1181.50Q913 1215 811 1215Q709 1215 628 1181.50Q547 1148 490.50 1084.50Q434 1021 404 930.50Q374 840 374 726Q374 611 404 520.50Q434 430 490.50 367Q547 304 628 270.50Q709 237 811 237Q913 237 993.50 270.50Q1074 304 1130.50 367Q1187 430 1217 520.50Q1247 611 1247 726Z"  horiz-adv-x="1622" vert-adv-y="2000"  />

      
      <glyph glyph-name="uni039B" unicode="&#x039B;" d="M1419 0L1160 0Q1121 0 1096.50 18.50Q1072 37 1060 66L746 902Q728 949 710.50 1004.50Q693 1060 678 1121Q665 1060 649.50 1004.50Q634 949 616 902L304 66Q294 41 268.50 20.50Q243 0 205 0L-20 0L564 1451L835 1451L1419 0Z"  horiz-adv-x="1401" vert-adv-y="2000"  />

      
      <glyph glyph-name="uni039E" unicode="&#x039E;" d="M1179 1451L1179 1207L72 1207L72 1451L1179 1451M1179 244L1179 0L72 0L72 244L1179 244M321 853L929 853L929 601L321 601L321 853Z"  horiz-adv-x="1248" vert-adv-y="2000"  />

      
      <glyph glyph-name="uni03A0" unicode="&#x03A0;" d="M1395 0L1093 0L1093 1224L454 1224L454 0L152 0L152 1451L1395 1451L1395 0Z"  horiz-adv-x="1547" vert-adv-y="2000"  />

      
      <glyph glyph-name="uni03A3" unicode="&#x03A3;" d="M582 1224Q523 1224 476.50 1228Q430 1232 385 1240Q487 1191 551 1119L736 890Q761 863 776 842.50Q791 822 799 806Q807 790 809.50 776.50Q812 763 812 751Q812 736 809.50 720.50Q807 705 799 687Q791 669 775.50 647Q760 625 735 598L494 309Q461 272 438 250.50Q415 229 392 215Q437 222 475.50 224.50Q514 227 546 227L1165 227L1165 0L57 0L57 110Q57 142 73 174Q89 206 112 230L547 724L92 1243Q77 1259 67 1280.50Q57 1302 57 1325L57 1451L1165 1451L1165 1224L582 1224Z"  horiz-adv-x="1229" vert-adv-y="2000"  />

      
      <glyph glyph-name="uni03A6" unicode="&#x03A6;" d="M1003 308Q1088 310 1157.50 343.50Q1227 377 1276.50 433.50Q1326 490 1352.50 565.50Q1379 641 1379 727Q1379 813 1352.50 888.50Q1326 964 1276.50 1020.50Q1227 1077 1157.50 1111Q1088 1145 1003 1147L1003 308M718 1147Q632 1145 563 1111.50Q494 1078 444.50 1021.50Q395 965 368.50 889Q342 813 342 727Q342 641 368.50 565.50Q395 490 444.50 433.50Q494 377 563 343.50Q632 310 718 308L718 1147M1003 1375Q1155 1373 1278.50 1321.50Q1402 1270 1489 1182Q1576 1094 1623 977Q1670 860 1670 727Q1670 594 1623 477Q1576 360 1489 272.50Q1402 185 1278.50 133.50Q1155 82 1003 80L1003-111L718-111L718 80Q566 82 442.50 133.50Q319 185 232 272.50Q145 360 98 477Q51 594 51 727Q51 860 98.50 977Q146 1094 233 1182Q320 1270 443 1321.50Q566 1373 718 1375L718 1563L1003 1563L1003 1375Z"  horiz-adv-x="1720" vert-adv-y="2000"  />

      
      <glyph glyph-name="uni03A8" unicode="&#x03A8;" d="M1599 1451L1599 929Q1599 802 1560 698Q1521 594 1444.50 518.50Q1368 443 1254 398.50Q1140 354 989 345L989 0L687 0L687 345Q537 354 423.50 399Q310 444 233.50 519.50Q157 595 118.50 698.50Q80 802 80 929L80 1451L282 1451Q330 1451 356 1422.50Q382 1394 382 1352L382 929Q382 849 396.50 787.50Q411 726 446.50 682.50Q482 639 540.50 614Q599 589 687 582L687 1451L989 1451L989 582Q1077 589 1136.50 614Q1196 639 1231.50 682Q1267 725 1282 787Q1297 849 1297 929L1297 1352Q1297 1394 1323 1422.50Q1349 1451 1397 1451L1599 1451Z"  horiz-adv-x="1681" vert-adv-y="2000"  />

      
      <glyph glyph-name="uni03A9" unicode="&#x03A9;" d="M1561 243L1561 92Q1561 51 1533.50 25.50Q1506 0 1461 0L926 0L926 333Q990 343 1046.50 383.50Q1103 424 1145.50 486.50Q1188 549 1213 629.50Q1238 710 1238 801Q1238 906 1205 984Q1172 1062 1115 1113Q1058 1164 981.50 1189.50Q905 1215 818 1215Q732 1215 656 1189.50Q580 1164 523 1113Q466 1062 432.50 984Q399 906 399 801Q399 710 424 629.50Q449 549 491.50 486.50Q534 424 591 383.50Q648 343 712 333L712 0L177 0Q131 0 104 25.50Q77 51 77 92L77 243L283 243Q334 243 387.50 238Q441 233 493 225Q406 258 333.50 315Q261 372 209.50 447Q158 522 129.50 612.50Q101 703 101 804Q101 945 156 1066.50Q211 1188 307 1277Q403 1366 534.50 1416.50Q666 1467 819 1467Q972 1467 1103 1416.50Q1234 1366 1330.50 1277Q1427 1188 1482 1066.50Q1537 945 1537 804Q1537 703 1508.50 612.50Q1480 522 1428.50 447Q1377 372 1305 315.50Q1233 259 1146 226Q1197 233 1250 238Q1303 243 1354 243L1561 243Z"  horiz-adv-x="1637" vert-adv-y="2000"  />

      
      <glyph glyph-name="uni03B1" unicode="&#x03B1;" d="M775 719Q762 744 741.50 766.50Q721 789 695 806Q669 823 638 833.50Q607 844 573 844Q529 844 488 825.50Q447 807 415.50 766Q384 725 364.50 659.50Q345 594 345 501Q345 417 361 359Q377 301 404.50 265.50Q432 230 468 214.50Q504 199 544 199Q584 199 619 214Q654 229 681 262.50Q708 296 726 349Q744 402 752 478L775 719M1210 188L1210 81Q1210 64 1198.50 47.50Q1187 31 1165 18Q1143 5 1111.50-2.50Q1080-10 1041-10Q966-10 903 28.50Q840 67 805 148Q770 103 729.50 71.50Q689 40 645.50 21Q602 2 558.50-6.50Q515-15 474-15Q386-15 310 20.50Q234 56 178.50 122Q123 188 91.50 282Q60 376 60 494Q60 618 95 721Q130 824 192.50 897Q255 970 340 1010.50Q425 1051 524 1051Q616 1051 689.50 1018Q763 985 815 931L828 983Q844 1031 897 1031L1066 1031L1015 505Q1014 457 1009.50 409.50Q1005 362 1005 317Q1005 284 1015.50 259.50Q1026 235 1043 219.50Q1060 204 1083 196Q1106 188 1132 188L1210 188Z"  horiz-adv-x="1214" vert-adv-y="2000"  />

      
      <glyph glyph-name="uni03B2" unicode="&#x03B2;" d="M389 281Q423 233 464.50 212.50Q506 192 564 192Q629 192 675.50 213Q722 234 752 270.50Q782 307 796 355.50Q810 404 810 459Q810 531 789 575.50Q768 620 734 644Q700 668 658.50 676Q617 684 575 684L512 684L512 896L541 896Q592 896 629.50 905Q667 914 691.50 935Q716 956 728.50 990Q741 1024 741 1074Q741 1178 695 1224Q649 1270 573 1270Q523 1270 488 1251Q453 1232 431 1190.50Q409 1149 399 1082.50Q389 1016 389 920L389 281M113 928Q113 1051 140.50 1150.50Q168 1250 225.50 1320Q283 1390 370.50 1428Q458 1466 578 1466Q691 1466 771 1434Q851 1402 902 1350Q953 1298 976.50 1232Q1000 1166 1000 1099Q1000 996 952 916Q904 836 807 797Q874 777 927 742Q980 707 1016 659.50Q1052 612 1071 553.50Q1090 495 1090 429Q1090 341 1057.50 260.50Q1025 180 965 119Q905 58 821 21.50Q737-15 634-15Q559-15 498 6.50Q437 28 389 73L389-340L113-340L113 928Z"  horiz-adv-x="1145" vert-adv-y="2000"  />

      
      <glyph glyph-name="uni03B3" unicode="&#x03B3;" d="M1125 1031Q1102 924 1058.50 805Q1015 686 958 566Q901 446 835 329.50Q769 213 701 110L701-332L425-332L425 106Q413 186 395.50 272Q378 358 354.50 440Q331 522 302 595Q273 668 237.50 723Q202 778 160.50 810Q119 842 70 842L32 842L32 941Q32 962 37.50 980Q43 998 58 1011.50Q73 1025 99 1033Q125 1041 166 1041Q268 1041 344.50 991.50Q421 942 476.50 853Q532 764 567.50 640Q603 516 622 366Q657 435 686.50 509.50Q716 584 739.50 660Q763 736 780.50 809.50Q798 883 810 949Q818 996 840 1013.50Q862 1031 889 1031L1125 1031Z"  horiz-adv-x="1131" vert-adv-y="2000"  />

      
      <glyph glyph-name="uni03B4" unicode="&#x03B4;" d="M563 191Q614 191 656.50 209.50Q699 228 729.50 263.50Q760 299 776.50 349.50Q793 400 793 463Q793 531 774 584.50Q755 638 723 680Q691 722 648.50 755Q606 788 559 817Q517 798 477.50 769.50Q438 741 407.50 700Q377 659 359 604.50Q341 550 341 478Q341 419 354.50 366.50Q368 314 395 275Q422 236 464 213.50Q506 191 563 191M934 1252Q929 1218 913 1206.50Q897 1195 864 1195Q845 1195 808.50 1203.50Q772 1212 728 1222.50Q684 1233 636.50 1242Q589 1251 549 1251Q493 1251 469 1234Q445 1217 445 1192Q445 1165 472 1140Q499 1115 542.50 1089Q586 1063 642 1033Q698 1003 756.50 966Q815 929 871 882.50Q927 836 970.50 776Q1014 716 1041 640Q1068 564 1068 469Q1068 365 1034 277Q1000 189 935.50 124.50Q871 60 777 23.50Q683-13 563-13Q444-13 350 23Q256 59 191 123Q126 187 91 275.50Q56 364 56 469Q56 626 136 740Q216 854 380 920Q339 944 304 971Q269 998 242.50 1030.50Q216 1063 201 1102.50Q186 1142 186 1192Q186 1252 209.50 1301.50Q233 1351 281 1386.50Q329 1422 400.50 1441.50Q472 1461 568 1461Q607 1461 657 1458Q707 1455 759.50 1449Q812 1443 863 1435Q914 1427 956 1418L934 1252Z"  horiz-adv-x="1125" vert-adv-y="2000"  />

      
      <glyph glyph-name="uni03B5" unicode="&#x03B5;" d="M890 157Q846 106 795 73Q744 40 691.50 21Q639 2 588-5.50Q537-13 494-13Q410-13 332 7.50Q254 28 194.50 68Q135 108 99.50 167Q64 226 64 302Q64 386 109.50 444Q155 502 228 535Q189 555 161 581Q133 607 115.50 636Q98 665 90 696.50Q82 728 82 759Q82 817 109.50 869.50Q137 922 190.50 961.50Q244 1001 324 1024Q404 1047 509 1047Q630 1047 716.50 1011Q803 975 863 917L800 813Q785 789 772 782Q759 775 739 775Q722 775 704 785.50Q686 796 660.50 808Q635 820 600 830.50Q565 841 514 841Q434 841 392.50 812Q351 783 351 735Q351 683 398 652Q445 621 536 621L702 621L702 446L536 446Q433 446 388.50 414Q344 382 344 325Q344 268 386 229.50Q428 191 509 191Q566 191 602.50 205Q639 219 666 236Q693 253 714 267Q735 281 760 281Q794 281 810 257L890 157Z"  horiz-adv-x="917" vert-adv-y="2000"  />

      
      <glyph glyph-name="uni03B6" unicode="&#x03B6;" d="M838 1339Q841 1325 838 1309Q835 1293 821.50 1271.50Q808 1250 782 1221Q756 1192 715 1152Q680 1118 637.50 1076Q595 1034 551.50 985.50Q508 937 467 882Q426 827 394 767.50Q362 708 342.50 643.50Q323 579 323 511Q323 457 336.50 417.50Q350 378 378.50 348Q407 318 451.50 295.50Q496 273 558 252Q646 223 703 191.50Q760 160 793 123.50Q826 87 839 46Q852 5 852-41Q852-176 758-322L545-242Q553-228 562.50-210.50Q572-193 579.50-173.50Q587-154 592-134.50Q597-115 597-98Q597-82 590-65Q583-48 563-31Q543-14 507 3.50Q471 21 413 39Q325 67 258.50 103.50Q192 140 147.50 189.50Q103 239 80.50 304Q58 369 58 453Q58 561 93 661.50Q128 762 191 859.50Q254 957 340.50 1053.50Q427 1150 531 1250Q486 1242 438.50 1237Q391 1232 340 1232L222 1232Q190 1232 168.50 1240.50Q147 1249 133.50 1261.50Q120 1274 114 1290Q108 1306 108 1321L108 1451L813 1451L838 1339Z"  horiz-adv-x="819" vert-adv-y="2000"  />

      
      <glyph glyph-name="uni03B7" unicode="&#x03B7;" d="M17 951Q17 968 24.50 984.50Q32 1001 48.50 1013.50Q65 1026 91 1034Q117 1042 155 1042Q234 1042 298.50 1007Q363 972 395 900Q429 932 467.50 959Q506 986 549 1005.50Q592 1025 640 1036Q688 1047 741 1047Q825 1047 890.50 1018Q956 989 1000 937Q1044 885 1067 813Q1090 741 1090 655L1090-333L814-333L814 655Q814 741 774.50 788.50Q735 836 657 836Q599 836 548 811Q497 786 451 741L451 0L175 0L175 718Q175 782 147.50 812.50Q120 843 69 843L17 843L17 951Z"  horiz-adv-x="1194" vert-adv-y="2000"  />

      
      <glyph glyph-name="uni03B8" unicode="&#x03B8;" d="M354 650Q358 528 377 442Q396 356 428.50 301Q461 246 505.50 220.50Q550 195 607 195Q662 195 706 220.50Q750 246 781.50 301Q813 356 831.50 442Q850 528 855 650L354 650M853 834Q847 948 827.50 1029Q808 1110 776.50 1161.50Q745 1213 702.50 1237Q660 1261 607 1261Q552 1261 508.50 1237Q465 1213 433 1161.50Q401 1110 381.50 1029Q362 948 356 834L853 834M607 1469Q723 1469 818 1421.50Q913 1374 981 1281Q1049 1188 1086.50 1049.50Q1124 911 1124 729Q1124 546 1086.50 406.50Q1049 267 981 173.50Q913 80 818 32.50Q723-15 607-15Q490-15 394 32.50Q298 80 229.50 173.50Q161 267 123.50 406.50Q86 546 86 729Q86 911 123.50 1049.50Q161 1188 229.50 1281Q298 1374 394 1421.50Q490 1469 607 1469Z"  horiz-adv-x="1210" vert-adv-y="2000"  />

      
      <glyph glyph-name="uni03B9" unicode="&#x03B9;" d="M107 1031L383 1031L383 314Q383 251 408 219Q433 187 491 187L588 187L588 105Q588 77 569.50 55.50Q551 34 521 19Q491 4 454-3.50Q417-11 380-11Q313-11 262 12.50Q211 36 176.50 77.50Q142 119 124.50 175.50Q107 232 107 298L107 1031Z"  horiz-adv-x="572" vert-adv-y="2000"  />

      
      <glyph glyph-name="uni03BB" unicode="&#x03BB;" d="M1109 186L1109 79Q1109 50 1100.50 32.50Q1092 15 1076 5Q1060-5 1037.50-8.50Q1015-12 988-12Q943-12 897.50-2.50Q852 7 811 31Q770 55 736 97Q702 139 680 204L567 518Q548 569 542 611Q535 589 527.50 566.50Q520 544 511 521L331 50Q323 30 304.50 15Q286 0 253 0L16 0L412 921L330 1165Q319 1196 307 1215.50Q295 1235 278.50 1246Q262 1257 239.50 1261.50Q217 1266 185 1266L106 1266L106 1365Q106 1386 113.50 1404Q121 1422 138.50 1435.50Q156 1449 185.50 1456.50Q215 1464 259 1464Q300 1464 344.50 1455.50Q389 1447 430 1425Q471 1403 505.50 1364.50Q540 1326 561 1265L916 281Q932 234 960 210Q988 186 1047 186L1109 186Z"  horiz-adv-x="1108" vert-adv-y="2000"  />

      
      <glyph glyph-name="uni03BC" unicode="&#x03BC;" d="M1218 188L1218 81Q1218 64 1206.50 47.50Q1195 31 1173 18Q1151 5 1119.50-3Q1088-11 1049-11Q1007-11 967.50 1Q928 13 895 38Q862 63 837 100Q812 137 798 188Q746 107 680.50 62.50Q615 18 530 18Q475 18 431.50 32Q388 46 353 72Q364 28 368-18.50Q372-65 372-106L372-333L235-333Q178-333 146-304Q114-275 114-220L114 1031L390 1031L390 427Q390 341 429.50 289.50Q469 238 547 238Q622 238 673 278.50Q724 319 754 392L754 1031L1030 1031L1030 313Q1030 249 1059.50 218.50Q1089 188 1140 188L1218 188Z"  horiz-adv-x="1215" vert-adv-y="2000"  />

      
      <glyph glyph-name="uni03BD" unicode="&#x03BD;" d="M1044 1031Q1017 905 970 767.50Q923 630 861.50 494.50Q800 359 728 232Q656 105 578 0L407 0L2 1031L231 1031Q261 1031 281.50 1017Q302 1003 309 981L482 471Q498 424 510 379Q522 334 532 289Q572 362 603.50 446Q635 530 658.50 617.50Q682 705 699.50 791.50Q717 878 731 955Q737 997 759 1014Q781 1031 808 1031L1044 1031Z"  horiz-adv-x="1051" vert-adv-y="2000"  />

      
      <glyph glyph-name="uni03BE" unicode="&#x03BE;" d="M817 1339Q817 1315 808 1296Q799 1277 784 1264Q769 1251 749.50 1244Q730 1237 710 1237L615 1237Q561 1237 516.50 1221Q472 1205 440.50 1176.50Q409 1148 392 1107.50Q375 1067 375 1018Q375 937 437 900Q499 863 611 863L716 863L716 652L554 652Q496 652 454.50 638Q413 624 386 599Q359 574 346.50 539Q334 504 334 461Q334 418 348 386.50Q362 355 395 328.50Q428 302 482 277.50Q536 253 616 223Q731 179 779.50 117.50Q828 56 828-30Q828-107 804.50-178.50Q781-250 734-323L521-242Q529-229 538.50-211.50Q548-194 555.50-175Q563-156 568-137.50Q573-119 573-104Q573-66 549-36Q525-6 461 13Q383 35 310.50 68Q238 101 182.50 150.50Q127 200 94 269.50Q61 339 61 434Q61 475 70.50 521.50Q80 568 103.50 613.50Q127 659 166 699.50Q205 740 264 769Q194 805 157.50 862Q121 919 121 998Q121 1041 134 1077.50Q147 1114 170 1145.50Q193 1177 224 1202.50Q255 1228 291 1249L191 1249Q129 1249 103.50 1277.50Q78 1306 78 1353L78 1451L817 1451L817 1339Z"  horiz-adv-x="818" vert-adv-y="2000"  />

      
      <glyph glyph-name="uni03C0" unicode="&#x03C0;" d="M1224 902Q1224 867 1202.50 842.50Q1181 818 1139 818L1022 818L1022 807Q1022 666 1025.50 565Q1029 464 1035.50 395.50Q1042 327 1052.50 286Q1063 245 1076.50 223.50Q1090 202 1107 195.50Q1124 189 1145 189L1194 189L1194 81Q1194 59 1180.50 42.50Q1167 26 1144 14.50Q1121 3 1091-2.50Q1061-8 1027-8Q889-8 823.50 83.50Q758 175 758 341Q758 386 762.50 434Q767 482 774 539Q781 596 788 664Q795 732 800 818L508 818Q504 646 492.50 518Q481 390 461.50 298Q442 206 415.50 146.50Q389 87 355 52.50Q321 18 279 4.50Q237-9 187-9Q170-9 150.50-6Q131-3 114.50 3Q98 9 87 18.50Q76 28 76 42L76 223L97 223Q130 223 159 255Q188 287 210 357.50Q232 428 247 541.50Q262 655 268 818L66 818L66 932Q66 948 73 965Q80 982 93 996Q106 1010 125 1019Q144 1028 168 1028L1224 1028L1224 902Z"  horiz-adv-x="1276" vert-adv-y="2000"  />

      
      <glyph glyph-name="uni03C1" unicode="&#x03C1;" d="M376 292Q418 238 472 214.50Q526 191 578 191Q628 191 669 210Q710 229 739.50 269.50Q769 310 785 373Q801 436 801 523Q801 609 785.50 669Q770 729 742 766Q714 803 675 819.50Q636 836 588 836Q544 836 505.50 819.50Q467 803 438.50 771Q410 739 393 691.50Q376 644 376 581L376 292M101 581Q101 687 132.50 773Q164 859 226 920Q288 981 378.50 1014.50Q469 1048 588 1048Q689 1048 779 1012Q869 976 937 908Q1005 840 1045 742.50Q1085 645 1085 523Q1085 407 1053.50 308.50Q1022 210 964 138Q906 66 824.50 25.50Q743-15 643-15Q563-15 496.50 9.50Q430 34 376 79L376-333L101-333L101 581Z"  horiz-adv-x="1145" vert-adv-y="2000"  />

      
      <glyph glyph-name="uni03C3" unicode="&#x03C3;" d="M657 824Q493 824 418 744Q343 664 343 496Q343 192 577 192Q696 192 753 270.50Q810 349 810 510Q810 558 804.50 607Q799 656 786.50 699Q774 742 754 774.50Q734 807 706 824L657 824M1260 1030L1260 900Q1260 888 1254 874.50Q1248 861 1237 850Q1226 839 1210 831.50Q1194 824 1175 824L968 824Q1026 769 1059.50 688Q1093 607 1093 498Q1093 387 1056 292.50Q1019 198 951.50 130Q884 62 789 23.50Q694-15 578-15Q462-15 366.50 20.50Q271 56 202.50 123Q134 190 96.50 285.50Q59 381 59 501Q59 626 101 724.50Q143 823 221 891Q299 959 410 994.50Q521 1030 659 1030L1260 1030Z"  horiz-adv-x="1245" vert-adv-y="2000"  />

      
      <glyph glyph-name="uni03C2" unicode="&#x03C2;" d="M860 801Q848 785 836.50 776.50Q825 768 803 768Q782 768 763.50 779.50Q745 791 721.50 804.50Q698 818 665 829.50Q632 841 583 841Q521 841 475.50 819.50Q430 798 400 761Q370 724 355.50 675Q341 626 341 571Q341 485 359.50 431.50Q378 378 419 342Q460 306 524 280Q588 254 680 223Q795 180 844 118.50Q893 57 893-30Q893-107 869.50-178.50Q846-250 799-322L585-242Q593-228 602.50-210.50Q612-193 619.50-174Q627-155 632-136.50Q637-118 637-103Q637-65 613-35.50Q589-6 525 14Q463 32 404 54Q345 76 293 105Q241 134 198 173Q155 212 124 266Q93 320 75.50 390.50Q58 461 58 554Q58 653 91 742.50Q124 832 188.50 899.50Q253 967 347.50 1007Q442 1047 566 1047Q684 1047 773 1009Q862 971 933 899L860 801Z"  horiz-adv-x="951" vert-adv-y="2000"  />

      
      <glyph glyph-name="uni03C4" unicode="&#x03C4;" d="M946 922Q946 875 921.50 851Q897 827 852 827L583 827L583 315Q583 252 608 220.50Q633 189 691 189L788 189L788 107Q788 78 769.50 56.50Q751 35 721 20Q691 5 654-2.50Q617-10 580-10Q513-10 462 13.50Q411 37 376.50 79Q342 121 324.50 177.50Q307 234 307 300L307 827L13 827L13 942Q13 976 35.50 1002Q58 1028 105 1028L946 1028L946 922Z"  horiz-adv-x="964" vert-adv-y="2000"  />

      
      <glyph glyph-name="uni03C5" unicode="&#x03C5;" d="M987 1031Q997 967 1006 907.50Q1015 848 1022 789Q1029 730 1033.50 670Q1038 610 1038 547Q1038 399 995.50 292.50Q953 186 883 117.50Q813 49 722.50 16.50Q632-16 536-16Q432-16 351 11.50Q270 39 215 90Q160 141 131.50 213.50Q103 286 103 376L103 1031L379 1031L379 376Q379 333 392 299.50Q405 266 428 242.50Q451 219 483 207Q515 195 554 195Q593 195 632 211Q671 227 701.50 267Q732 307 751.50 375Q771 443 771 547Q771 598 765.50 647Q760 696 752 745Q744 794 735.50 843.50Q727 893 721 944Q719 968 725.50 984.50Q732 1001 743 1011.50Q754 1022 768.50 1026.50Q783 1031 797 1031L987 1031Z"  horiz-adv-x="1124" vert-adv-y="2000"  />

      
      <glyph glyph-name="uni03C6" unicode="&#x03C6;" d="M912 184Q1069 187 1156 278Q1243 369 1243 542Q1243 614 1222.50 671Q1202 728 1170.50 767.50Q1139 807 1100.50 827.50Q1062 848 1025 848Q1000 848 979.50 840.50Q959 833 944 815Q929 797 920.50 767.50Q912 738 912 695L912 184M654 695Q654 789 680 856Q706 923 754.50 965.50Q803 1008 871.50 1027.50Q940 1047 1025 1047Q1136 1047 1226.50 1008.50Q1317 970 1382 902Q1447 834 1482.50 741.50Q1518 649 1518 542Q1518 413 1472.50 310.50Q1427 208 1346.50 136Q1266 64 1155 25Q1044-14 912-15L912-332L654-332L654-15Q523-13 413.50 26Q304 65 224.50 134Q145 203 101 300.50Q57 398 57 517Q57 608 85 689Q113 770 164 837Q215 904 285.50 955.50Q356 1007 441 1041L513 932Q523 917 524.50 899.50Q526 882 521 867Q516 852 506.50 840Q497 828 486 823Q416 778 374.50 701Q333 624 333 516Q333 440 355.50 379.50Q378 319 419.50 276.50Q461 234 520.50 210Q580 186 654 184L654 695Z"  horiz-adv-x="1576" vert-adv-y="2000"  />

      
      <glyph glyph-name="uni03C7" unicode="&#x03C7;" d="M1013-154L1013-261Q1013-290 1008-307.50Q1003-325 991-335Q979-345 959.50-348.50Q940-352 910-352Q859-352 814-343.50Q769-335 729.50-311.50Q690-288 656.50-246Q623-204 595-136L464 169Q460 137 453.50 107.50Q447 78 439 55L286-281Q278-301 260-316Q242-331 210-331L12-331L343 388L189 746Q175 776 161.50 795.50Q148 815 131 826.50Q114 838 91.50 842.50Q69 847 37 847L-2 847L-2 946Q-2 967-1 985Q0 1003 9 1016.50Q18 1030 39.50 1038Q61 1046 104 1046Q161 1046 208.50 1035.50Q256 1025 295.50 1002Q335 979 366 940.50Q397 902 421 847L555 536Q559 568 565 597Q571 626 579 649L727 982Q735 1002 753 1017Q771 1032 803 1032L1001 1032L673 323L838-59Q848-82 859-100Q870-118 885.50-130Q901-142 922-148Q943-154 972-154L1013-154Z"  horiz-adv-x="998" vert-adv-y="2000"  />

      
      <glyph glyph-name="uni03C8" unicode="&#x03C8;" d="M1463 1031Q1475 967 1484.50 907.50Q1494 848 1501 789Q1508 730 1511.50 670Q1515 610 1515 547Q1515 399 1470.50 297.50Q1426 196 1348.50 131.50Q1271 67 1166 34Q1061 1 941-10L941-332L665-332L665-11Q514 1 407 41.50Q300 82 231.50 149Q163 216 131 306Q99 396 99 507L99 1031L290 1031Q307 1031 322 1021Q337 1011 348.50 996Q360 981 367 963Q374 945 374 929L374 507Q374 374 449.50 300.50Q525 227 665 205L665 1451L941 1451L941 202Q1013 211 1068.50 232.50Q1124 254 1162 294.50Q1200 335 1219.50 396.50Q1239 458 1239 547Q1239 628 1231.50 684Q1224 740 1215 783.50Q1206 827 1197.50 863.50Q1189 900 1188 944Q1188 968 1194.50 984.50Q1201 1001 1212 1011.50Q1223 1022 1236.50 1026.50Q1250 1031 1264 1031L1463 1031Z"  horiz-adv-x="1602" vert-adv-y="2000"  />

      
      <glyph glyph-name="uni03C9" unicode="&#x03C9;" d="M1421 1031Q1449 974 1472 912Q1495 850 1511.50 786.50Q1528 723 1537 659Q1546 595 1546 534Q1546 417 1517 316Q1488 215 1434 141.50Q1380 68 1301.50 26Q1223-16 1124-16Q1064-16 1015.50-3.50Q967 9 927.50 31.50Q888 54 857.50 84Q827 114 804 150Q781 114 750 84Q719 54 680 31.50Q641 9 593-3.50Q545-16 487-16Q388-16 310 26Q232 68 177.50 141.50Q123 215 94 316Q65 417 65 534Q65 595 74 659Q83 723 99.50 786.50Q116 850 139 912Q162 974 191 1031L389 1031Q403 1031 419.50 1025Q436 1019 448 1005Q460 991 463 968.50Q466 946 453 914Q448 903 429.50 864Q411 825 391.50 770.50Q372 716 356.50 653.50Q341 591 341 534Q341 430 357.50 364.50Q374 299 400 261Q426 223 458 209Q490 195 522 195Q562 195 589.50 215Q617 235 634.50 271Q652 307 659.50 356Q667 405 667 463L667 696L943 696L943 463L944 463Q944 405 951.50 356Q959 307 976.50 271Q994 235 1021.50 215Q1049 195 1089 195Q1120 195 1152.50 209Q1185 223 1211 261Q1237 299 1253.50 364.50Q1270 430 1270 534Q1270 591 1254.50 653.50Q1239 716 1219.50 770.50Q1200 825 1182 864Q1164 903 1159 914Q1145 946 1148 968.50Q1151 991 1163 1005Q1175 1019 1191.50 1025Q1208 1031 1222 1031L1421 1031Z"  horiz-adv-x="1610" vert-adv-y="2000"  />

      
      <glyph glyph-name="uni0384" unicode="&#x0384;" d="M318 1142L371 1518L540 1518Q578 1518 591.50 1494.50Q605 1471 591 1433L476 1142L318 1142Z"  horiz-adv-x="800" vert-adv-y="2000"  />

      
      <glyph glyph-name="uni0385" unicode="&#x0385;" d="M314 1150L367 1526L537 1526Q575 1526 588 1503Q601 1480 588 1441L473 1150L314 1150M842 1300Q842 1276 832.50 1255.50Q823 1235 806.50 1219Q790 1203 768.50 1194Q747 1185 722 1185Q697 1185 675.50 1194Q654 1203 637.50 1219Q621 1235 611.50 1255.50Q602 1276 602 1300Q602 1325 611.50 1346.50Q621 1368 637.50 1384.50Q654 1401 675.50 1410.50Q697 1420 722 1420Q747 1420 768.50 1410.50Q790 1401 806.50 1384.50Q823 1368 832.50 1346.50Q842 1325 842 1300M280 1300Q280 1276 270.50 1255.50Q261 1235 244.50 1219Q228 1203 205.50 1194Q183 1185 158 1185Q134 1185 113 1194Q92 1203 75.50 1219Q59 1235 49.50 1255.50Q40 1276 40 1300Q40 1325 49.50 1346.50Q59 1368 75.50 1384.50Q92 1401 113 1410.50Q134 1420 158 1420Q183 1420 205.50 1410.50Q228 1401 244.50 1384.50Q261 1368 270.50 1346.50Q280 1325 280 1300Z"  horiz-adv-x="800" vert-adv-y="2000"  />

      
      <glyph glyph-name="uni0374" unicode="&#x0374;" d="M361 1522Q403 1348 355.50 1187Q308 1026 174 888L87 940Q62 956 60 977.50Q58 999 70 1014Q99 1054 122 1091Q145 1128 155 1165Q165 1202 157 1241.50Q149 1281 117 1328L117 1453Q117 1483 134 1502.50Q151 1522 189 1522L361 1522Z"  horiz-adv-x="460" vert-adv-y="2000"  />

      
      <glyph glyph-name="uni0375" unicode="&#x0375;" d="M361 389Q403 215 355.50 54Q308-107 174-245L87-193Q62-177 60-155.50Q58-134 70-119Q99-79 122-42Q145-5 155 32Q165 69 157 108.50Q149 148 117 195L117 320Q117 350 134 369.50Q151 389 189 389L361 389Z"  horiz-adv-x="460" vert-adv-y="2000"  />

      
      <glyph glyph-name="uni0411" unicode="&#x0411;" d="M670 230Q741 230 788 246Q835 262 863 289.50Q891 317 902.50 353Q914 389 914 429Q914 474 902.50 511Q891 548 863.50 574.50Q836 601 789 615Q742 629 670 629L452 629L452 230L670 230M670 860Q815 860 918 828Q1021 796 1085.50 741Q1150 686 1180 613.50Q1210 541 1210 459Q1210 355 1173.50 270.50Q1137 186 1068 126Q999 66 898.50 33Q798 0 670 0L152 0L152 1451L1156 1451L1156 1223L452 1223L452 860L670 860Z"  horiz-adv-x="1267" vert-adv-y="2000"  />

      
      <glyph glyph-name="uni0413" unicode="&#x0413;" d="M1056 1224L454 1224L454 0L152 0L152 1451L1056 1451L1056 1224Z"  horiz-adv-x="1086" vert-adv-y="2000"  />

      
      <glyph glyph-name="uni0490" unicode="&#x0490;" d="M1056 1224L454 1224L454 0L152 0L152 1451L824 1451L824 1771L1056 1771L1056 1224Z"  horiz-adv-x="1086" vert-adv-y="2000"  />

      
      <glyph glyph-name="uni0414" unicode="&#x0414;" d="M1066 227L1066 1224L705 1224Q693 1022 673 864Q653 706 627 585Q601 464 569 376Q537 288 500 227L1066 227M1589 227L1589-258Q1589-296 1562.50-319Q1536-342 1494-342L1314-342L1314 0L290 0L290-258Q290-296 263.50-319Q237-342 195-342L14-342L14 227L175 227Q201 242 228 274.50Q255 307 280.50 366.50Q306 426 328.50 516.50Q351 607 369.50 737.50Q388 868 401.50 1044Q415 1220 421 1451L1368 1451L1368 227L1589 227Z"  horiz-adv-x="1635" vert-adv-y="2000"  />

      
      <glyph glyph-name="uni0416" unicode="&#x0416;" d="M2164 0L1963 0Q1898 0 1851.50 27.50Q1805 55 1778 102L1510 548Q1484 593 1450.50 611Q1417 629 1369 629L1221 629L1221 0L938 0L938 629L791 629Q742 629 709 611Q676 593 650 548L382 102Q354 55 308 27.50Q262 0 196 0L-4 0L353 610Q391 674 434.50 712Q478 750 533 770Q488 788 455.50 819.50Q423 851 393 898L39 1451L277 1451Q322 1451 360.50 1429Q399 1407 422 1368L691 924Q716 880 747 866Q778 852 817 852L938 852L938 1451L1221 1451L1221 852L1342 852Q1382 852 1412.50 866Q1443 880 1469 924L1738 1368Q1761 1407 1799.50 1429Q1838 1451 1883 1451L2121 1451L1767 898Q1737 851 1704.50 819.50Q1672 788 1627 770Q1682 750 1725.50 712Q1769 674 1806 610L2164 0Z"  horiz-adv-x="2160" vert-adv-y="2000"  />

      
      <glyph glyph-name="uni0417" unicode="&#x0417;" d="M69 1313Q154 1385 273 1426Q392 1467 535 1467Q655 1467 751.50 1439Q848 1411 916 1360.50Q984 1310 1020.50 1239.50Q1057 1169 1057 1084Q1057 984 1012.50 901Q968 818 875 765Q923 741 963.50 709Q1004 677 1032.50 638Q1061 599 1077 554Q1093 509 1093 459Q1093 360 1056 273.50Q1019 187 948.50 123.50Q878 60 775 23Q672-14 540-14Q465-14 390.50 0Q316 14 248 39Q180 64 120.50 99Q61 134 15 177L104 319Q115 335 132.50 345.50Q150 356 171 356Q199 356 231 336Q263 316 306 292Q349 268 408 248Q467 228 549 228Q673 228 742 280Q811 332 811 447Q811 493 791.50 529.50Q772 566 737 591Q702 616 652 629Q602 642 542 641L334 641L333 879L519 879Q644 879 710 925Q776 971 776 1059Q776 1136 714.50 1181Q653 1226 533 1226Q464 1226 413 1211Q362 1196 324.50 1177.50Q287 1159 259.50 1144Q232 1129 210 1129Q187 1129 172 1139.50Q157 1150 143 1172L69 1313Z"  horiz-adv-x="1168" vert-adv-y="2000"  />

      
      <glyph glyph-name="uni0418" unicode="&#x0418;" d="M1395 1451L1395 0L1093 0L1093 865Q1093 919 1096 978.50Q1099 1038 1108 1104Q1086 1045 1061 994Q1036 943 1013 905L510 92Q500 75 486 59Q472 43 455.50 29.50Q439 16 419.50 8Q400 0 378 0L152 0L152 1451L454 1451L454 586Q454 532 451 472.50Q448 413 439 347Q461 406 486 457Q511 508 534 546L1037 1360Q1047 1376 1061 1392.50Q1075 1409 1091.50 1422Q1108 1435 1127.50 1443Q1147 1451 1169 1451L1395 1451Z"  horiz-adv-x="1547" vert-adv-y="2000"  />

      
      <glyph glyph-name="uni041A" unicode="&#x041A;" d="M1414 0L1140 0Q1099 0 1071 21.50Q1043 43 1019 85L742 557Q730 578 716.50 592Q703 606 687.50 614.50Q672 623 652.50 626Q633 629 609 629L452 629L452 0L152 0L152 1451L452 1451L452 852L583 852Q622 852 651 866Q680 880 705 918L998 1372Q1019 1407 1049 1429Q1079 1451 1121 1451L1378 1451L1002 874Q977 835 943 809.50Q909 784 868 769Q932 752 976 713.50Q1020 675 1059 606L1414 0Z"  horiz-adv-x="1413" vert-adv-y="2000"  />

      
      <glyph glyph-name="uni041B" unicode="&#x041B;" d="M1351 0L1049 0L1049 1224L687 1224Q672 954 646 757Q620 560 583.50 422.50Q547 285 500.50 199.50Q454 114 398.50 66.50Q343 19 279.50 2Q216-15 146-15Q67-15 32-1Q-3 13-3 40L-3 225L77 225Q109 225 143.50 235.50Q178 246 211.50 285.50Q245 325 276.50 403Q308 481 333.50 617.50Q359 754 377.50 957.50Q396 1161 404 1451L1351 1451L1351 0Z"  horiz-adv-x="1503" vert-adv-y="2000"  />

      
      <glyph glyph-name="uni0409" unicode="&#x0409;" d="M1568 230Q1640 230 1687 246Q1734 262 1761.50 289.50Q1789 317 1800.50 353Q1812 389 1812 429Q1812 474 1800.50 511Q1789 548 1761.50 574.50Q1734 601 1687 615Q1640 629 1568 629L1351 629L1351 230L1568 230M1568 860Q1714 860 1816.50 828Q1919 796 1984 741Q2049 686 2079 613.50Q2109 541 2109 459Q2109 355 2072.50 270.50Q2036 186 1967 126Q1898 66 1797.50 33Q1697 0 1568 0L1049 0L1049 1224L687 1224Q672 954 646 757Q620 560 583.50 422.50Q547 285 500.50 199.50Q454 114 398.50 66.50Q343 19 279.50 2Q216-15 146-15Q67-15 32-1Q-3 13-3 40L-3 225L77 225Q109 225 143.50 235.50Q178 246 211.50 285.50Q245 325 276.50 403Q308 481 333.50 617.50Q359 754 377.50 957.50Q396 1161 404 1451L1351 1451L1351 860L1568 860Z"  horiz-adv-x="2143" vert-adv-y="2000"  />

      
      <glyph glyph-name="uni040A" unicode="&#x040A;" d="M1612 230Q1684 230 1731 246Q1778 262 1805.50 289.50Q1833 317 1844.50 353Q1856 389 1856 429Q1856 474 1845 511Q1834 548 1806 574.50Q1778 601 1731.50 615Q1685 629 1613 629L1395 629L1395 230L1612 230M1613 860Q1758 860 1861 828Q1964 796 2028.50 741Q2093 686 2123 613.50Q2153 541 2153 459Q2153 355 2116.50 270.50Q2080 186 2011 126Q1942 66 1841.50 33Q1741 0 1612 0L1093 0L1093 625L454 625L454 0L152 0L152 1451L454 1451L454 835L1093 835L1093 1451L1395 1451L1395 860L1613 860Z"  horiz-adv-x="2188" vert-adv-y="2000"  />

      
      <glyph glyph-name="uni0472" unicode="&#x0472;" d="M380 626Q392 534 427 462Q462 390 517.50 340Q573 290 647 263.50Q721 237 811 237Q901 237 975 263.50Q1049 290 1104 340Q1159 390 1194 462Q1229 534 1241 626L380 626M1238 845Q1223 932 1187.50 1001Q1152 1070 1097.50 1117.50Q1043 1165 971 1190Q899 1215 811 1215Q723 1215 651 1190Q579 1165 524 1117.50Q469 1070 433.50 1001Q398 932 383 845L1238 845M811 1467Q978 1467 1115 1410.50Q1252 1354 1349.50 1254.50Q1447 1155 1500.50 1019.50Q1554 884 1554 726Q1554 567 1500.50 431Q1447 295 1349.50 196Q1252 97 1115 40.50Q978-16 811-16Q644-16 507 40.50Q370 97 272 196Q174 295 120.50 431Q67 567 67 726Q67 885 120.50 1020.50Q174 1156 272 1255Q370 1354 507 1410.50Q644 1467 811 1467Z"  horiz-adv-x="1622" vert-adv-y="2000"  />

      
      <glyph glyph-name="uni041F" unicode="&#x041F;" d="M1347 0L1045 0L1045 1224L454 1224L454 0L152 0L152 1451L1347 1451L1347 0Z"  horiz-adv-x="1499" vert-adv-y="2000"  />

      
      <glyph glyph-name="uni0423" unicode="&#x0423;" d="M1332 1451L747 206Q715 139 678 96Q641 53 598.50 28.50Q556 4 508-5.50Q460-15 405-15Q326-15 291-1Q256 13 256 40L256 225L337 225Q357 225 379.50 228.50Q402 232 424.50 243.50Q447 255 468 276Q489 297 507 333L559 436L-23 1451L259 1451Q298 1451 321 1432.50Q344 1414 359 1385L611 899Q636 853 655.50 807Q675 761 690 714Q717 808 762 899L984 1385Q996 1409 1020.50 1430Q1045 1451 1083 1451L1332 1451Z"  horiz-adv-x="1305" vert-adv-y="2000"  />

      
      <glyph glyph-name="uni0474" unicode="&#x0474;" d="M980 1231Q1017 1348 1094 1404.50Q1171 1461 1302 1461Q1341 1461 1365 1458Q1389 1455 1402 1448.50Q1415 1442 1419.50 1431.50Q1424 1421 1424 1406L1424 1222L1370 1222Q1324 1222 1293 1198Q1262 1174 1242 1120L834 0L562 0L-22 1451L219 1451Q258 1451 282.50 1432.50Q307 1414 319 1385L633 549Q651 503 669 447Q687 391 701 331Q714 391 730 447Q746 503 764 549L980 1231Z"  horiz-adv-x="1438" vert-adv-y="2000"  />

      
      <glyph glyph-name="uni0424" unicode="&#x0424;" d="M956 400Q1026 402 1084.50 430Q1143 458 1185 506Q1227 554 1250 618.50Q1273 683 1273 757Q1273 830 1250 894Q1227 958 1185 1006Q1143 1054 1084.50 1082.50Q1026 1111 956 1113L956 400M672 1113Q601 1111 542.50 1082.50Q484 1054 442 1006Q400 958 377 894Q354 830 354 757Q354 683 377 618.50Q400 554 442 506Q484 458 542.50 430Q601 402 672 400L672 1113M956 1340Q1089 1335 1202 1288Q1315 1241 1397.50 1162.50Q1480 1084 1526.50 979.50Q1573 875 1573 757Q1573 638 1526.50 533.50Q1480 429 1397.50 350.50Q1315 272 1202 224.50Q1089 177 956 172L956 0L672 0L672 172Q539 177 425.50 224.50Q312 272 229.50 350.50Q147 429 100.50 533.50Q54 638 54 757Q54 875 100.50 979.50Q147 1084 229.50 1162.50Q312 1241 425.50 1288Q539 1335 672 1340L672 1510L956 1510L956 1340Z"  horiz-adv-x="1627" vert-adv-y="2000"  />

      
      <glyph glyph-name="uni0426" unicode="&#x0426;" d="M1549 227L1549-258Q1549-296 1523-319Q1497-342 1455-342L1274-342L1274 0L152 0L152 1451L454 1451L454 227L1045 227L1045 1451L1347 1451L1347 227L1549 227Z"  horiz-adv-x="1601" vert-adv-y="2000"  />

      
      <glyph glyph-name="uni040F" unicode="&#x040F;" d="M1347 1451L1347 0L887 0L887-258Q887-296 860.50-319Q834-342 792-342L611-342L611 0L152 0L152 1451L454 1451L454 227L1045 227L1045 1451L1347 1451Z"  horiz-adv-x="1499" vert-adv-y="2000"  />

      
      </font>
</defs>
</svg>
